<svg id="exZcGP9DWgJ1" xmlns="http://www.w3.org/2000/svg" xmlns:xlink="http://www.w3.org/1999/xlink" viewBox="0 0 1280 724" shape-rendering="geometricPrecision" text-rendering="geometricPrecision">
<style><![CDATA[
#exZcGP9DWgJ3_to {animation: exZcGP9DWgJ3_to__to 10000ms linear infinite normal forwards}@keyframes exZcGP9DWgJ3_to__to { 0% {transform: translate(1034.843363px,453.624866px)} 3% {transform: translate(1034.843363px,453.624866px)} 6% {transform: translate(1033.125484px,460.496381px)} 9% {transform: translate(1042.573817px,463.932139px)} 10% {transform: translate(1042.573817px,457.919563px)} 12% {transform: translate(1040.855938px,464.791078px)} 14% {transform: translate(1041.714877px,459.637442px)} 15% {transform: translate(1039.138059px,466.508957px)} 17% {transform: translate(1047.727453px,459.637442px)} 19% {transform: translate(1011.651999px,456.201684px)} 20% {transform: translate(1014.228817px,470.803654px)} 22% {transform: translate(1015.087756px,464.791078px)} 24% {transform: translate(1015.087756px,469.944715px)} 26% {transform: translate(1013.369877px,455.342746px)} 28% {transform: translate(1013.369877px,462.214261px)} 31% {transform: translate(1014.228816px,465.650018px)} 34% {transform: translate(1015.087755px,457.919564px)} 37% {transform: translate(1030.548663px,456.201686px)} 38% {transform: translate(1039.996994px,452.765929px)} 39% {transform: translate(1036.561238px,466.508959px)} 41% {transform: translate(1039.996995px,458.778505px)} 43% {transform: translate(1039.138055px,465.65002px)} 48% {transform: translate(1444.557441px,466.50896px)} 52% {transform: translate(1439.841083px,466.39964px)} 54% {transform: translate(1281.889941px,453.062654px)} 61% {transform: translate(1191.175249px,489.850994px)} 69% {transform: translate(1040.855938px,464.791078px)} 71% {transform: translate(1041.714877px,459.637442px)} 72% {transform: translate(1039.138059px,466.508957px)} 73% {transform: translate(1033.125484px,460.496381px)} 75% {transform: translate(1047.727453px,459.637442px)} 80% {transform: translate(1011.651999px,456.201684px)} 85% {transform: translate(1185.157749px,460.496384px)} 88% {transform: translate(1125.031992px,467.367899px)} 95% {transform: translate(1110.430023px,487.123505px)} 99% {transform: translate(1042.573813px,457.919566px)} 100% {transform: translate(1042.950202px,457.982298px)}} #exZcGP9DWgJ3_tr {animation: exZcGP9DWgJ3_tr__tr 10000ms linear infinite normal forwards}@keyframes exZcGP9DWgJ3_tr__tr { 0% {transform: rotate(0deg)} 48% {transform: rotate(0deg)} 52% {transform: rotate(-32.703197deg)} 61% {transform: rotate(-18.429896deg)} 63% {transform: rotate(3.477588deg)} 73% {transform: rotate(1.925205deg)} 77% {transform: rotate(0deg)} 80% {transform: rotate(-0.225102deg)} 95% {transform: rotate(0deg)} 100% {transform: rotate(0deg)}} #exZcGP9DWgJ54_to {animation: exZcGP9DWgJ54_to__to 10000ms linear infinite normal forwards}@keyframes exZcGP9DWgJ54_to__to { 0% {transform: translate(285.903903px,154.931592px)} 10% {transform: translate(286.200918px,152.852485px)} 50% {transform: translate(286.646441px,154.337561px)} 100% {transform: translate(286.646441px,154.337561px)}} #exZcGP9DWgJ92_to {animation: exZcGP9DWgJ92_to__to 10000ms linear infinite normal forwards}@keyframes exZcGP9DWgJ92_to__to { 0% {transform: translate(286.842773px,107.128662px)} 5% {transform: translate(283.826793px,106.306122px)} 10% {transform: translate(286.294414px,106.580303px)} 13% {transform: translate(286.842774px,106.854484px)} 19% {transform: translate(287.939494px,106.580304px)} 22% {transform: translate(285.197693px,106.306124px)} 26% {transform: translate(286.568593px,106.580304px)} 34% {transform: translate(283.826793px,106.306122px)} 39% {transform: translate(286.294414px,106.580303px)} 42% {transform: translate(286.842774px,106.854484px)} 48% {transform: translate(287.939494px,106.580304px)} 50% {transform: translate(286.568593px,106.580304px)} 51% {transform: translate(285.197693px,106.306124px)} 55% {transform: translate(286.568593px,106.580304px)} 60% {transform: translate(283.826793px,106.306122px)} 65% {transform: translate(286.294414px,106.580303px)} 68% {transform: translate(286.842774px,106.854484px)} 74% {transform: translate(287.939494px,106.580304px)} 77% {transform: translate(285.197693px,106.306124px)} 81% {transform: translate(286.568593px,106.580304px)} 84% {transform: translate(283.826793px,106.306122px)} 89% {transform: translate(286.294414px,106.580303px)} 92% {transform: translate(286.842774px,106.854484px)} 98% {transform: translate(287.939494px,106.580304px)} 100% {transform: translate(286.111627px,106.397517px)}} #exZcGP9DWgJ111 {animation: exZcGP9DWgJ111_c_o 10000ms linear infinite normal forwards}@keyframes exZcGP9DWgJ111_c_o { 0% {opacity: 0} 10% {opacity: 0.67} 17% {opacity: 0} 22% {opacity: 0.36} 30% {opacity: 1} 41% {opacity: 0.25} 50% {opacity: 0.54} 100% {opacity: 0.54}} #exZcGP9DWgJ890 {animation: exZcGP9DWgJ890_c_o 10000ms linear infinite normal forwards}@keyframes exZcGP9DWgJ890_c_o { 0% {opacity: 0} 3% {opacity: 0} 5% {opacity: 1} 18% {opacity: 1} 20% {opacity: 0} 100% {opacity: 0}} #exZcGP9DWgJ892 {animation: exZcGP9DWgJ892_c_o 10000ms linear infinite normal forwards}@keyframes exZcGP9DWgJ892_c_o { 0% {opacity: 0} 28% {opacity: 0} 30% {opacity: 1} 43% {opacity: 1} 45% {opacity: 0} 100% {opacity: 0}} #exZcGP9DWgJ894 {animation: exZcGP9DWgJ894_c_o 10000ms linear infinite normal forwards}@keyframes exZcGP9DWgJ894_c_o { 0% {opacity: 0} 50% {opacity: 0} 52% {opacity: 1} 65% {opacity: 1} 67% {opacity: 0} 100% {opacity: 0}} #exZcGP9DWgJ896 {animation: exZcGP9DWgJ896_c_o 10000ms linear infinite normal forwards}@keyframes exZcGP9DWgJ896_c_o { 0% {opacity: 0} 73% {opacity: 0} 75% {opacity: 1} 88% {opacity: 1} 90% {opacity: 0} 100% {opacity: 0}}
]]></style>
<defs><linearGradient id="exZcGP9DWgJ4-fill" x1="0.508476" y1="0.916977" x2="0.515254" y2="0.48731" spreadMethod="pad" gradientUnits="objectBoundingBox" gradientTransform="translate(0 0)"><stop id="exZcGP9DWgJ4-fill-0" offset="0%" stop-color="#1c7ac5"/><stop id="exZcGP9DWgJ4-fill-1" offset="100%" stop-color="#2a8dd3"/></linearGradient><linearGradient id="exZcGP9DWgJ43-fill" x1="0.513624" y1="0.488932" x2="0.3375" y2="0.812425" spreadMethod="pad" gradientUnits="objectBoundingBox" gradientTransform="translate(0 0)"><stop id="exZcGP9DWgJ43-fill-0" offset="0%" stop-color="#d2dbed"/><stop id="exZcGP9DWgJ43-fill-1" offset="100%" stop-color="#e3d3b6"/></linearGradient><linearGradient id="exZcGP9DWgJ44-fill" x1="0.513624" y1="0.488932" x2="0.3375" y2="0.812425" spreadMethod="pad" gradientUnits="objectBoundingBox" gradientTransform="translate(0 0)"><stop id="exZcGP9DWgJ44-fill-0" offset="0%" stop-color="#d2dbed"/><stop id="exZcGP9DWgJ44-fill-1" offset="100%" stop-color="#e3d3b6"/></linearGradient><linearGradient id="exZcGP9DWgJ45-fill" x1="0.513624" y1="0.488932" x2="0.3375" y2="0.812425" spreadMethod="pad" gradientUnits="objectBoundingBox" gradientTransform="translate(0 0)"><stop id="exZcGP9DWgJ45-fill-0" offset="0%" stop-color="#d2dbed"/><stop id="exZcGP9DWgJ45-fill-1" offset="100%" stop-color="#e3d3b6"/></linearGradient><linearGradient id="exZcGP9DWgJ46-fill" x1="0.51139" y1="-0.010677" x2="0.477405" y2="0.829107" spreadMethod="pad" gradientUnits="objectBoundingBox" gradientTransform="translate(0 0)"><stop id="exZcGP9DWgJ46-fill-0" offset="0%" stop-color="#ffecc7"/><stop id="exZcGP9DWgJ46-fill-1" offset="100%" stop-color="#fdc544"/></linearGradient><linearGradient id="exZcGP9DWgJ74-fill" x1="0.509934" y1="1.152148" x2="0.543046" y2="0.049076" spreadMethod="pad" gradientUnits="objectBoundingBox" gradientTransform="translate(0 0)"><stop id="exZcGP9DWgJ74-fill-0" offset="0%" stop-color="#ea0303"/><stop id="exZcGP9DWgJ74-fill-1" offset="100%" stop-color="#452929"/></linearGradient><linearGradient id="exZcGP9DWgJ90-fill" x1="0.391992" y1="0.643008" x2="0.130629" y2="0.210495" spreadMethod="pad" gradientUnits="objectBoundingBox" gradientTransform="translate(0 0)"><stop id="exZcGP9DWgJ90-fill-0" offset="0%" stop-color="#1c7ac5"/><stop id="exZcGP9DWgJ90-fill-1" offset="100%" stop-color="#3a9ce1"/></linearGradient><linearGradient id="exZcGP9DWgJ91-fill" x1="0.802359" y1="0.264734" x2="0.513093" y2="0.870364" spreadMethod="pad" gradientUnits="objectBoundingBox" gradientTransform="translate(0 0)"><stop id="exZcGP9DWgJ91-fill-0" offset="0%" stop-color="#4497da"/><stop id="exZcGP9DWgJ91-fill-1" offset="100%" stop-color="#2477c6"/></linearGradient><radialGradient id="exZcGP9DWgJ93-fill" cx="0" cy="0" r="0.5" spreadMethod="pad" gradientUnits="objectBoundingBox" gradientTransform="translate(0.5 0.5)"><stop id="exZcGP9DWgJ93-fill-0" offset="48%" stop-color="#1450dc"/><stop id="exZcGP9DWgJ93-fill-1" offset="100%" stop-color="#2d2412"/></radialGradient><radialGradient id="exZcGP9DWgJ94-fill" cx="0" cy="0" r="0.5" spreadMethod="pad" gradientUnits="objectBoundingBox" gradientTransform="translate(0.5 0.5)"><stop id="exZcGP9DWgJ94-fill-0" offset="48%" stop-color="#1450dc"/><stop id="exZcGP9DWgJ94-fill-1" offset="100%" stop-color="#2d2412"/></radialGradient><linearGradient id="exZcGP9DWgJ113-fill" x1="0.508476" y1="0.916977" x2="0.515254" y2="0.48731" spreadMethod="pad" gradientUnits="objectBoundingBox" gradientTransform="translate(0 0)"><stop id="exZcGP9DWgJ113-fill-0" offset="0%" stop-color="#1c7ac5"/><stop id="exZcGP9DWgJ113-fill-1" offset="100%" stop-color="#2a8dd3"/></linearGradient><linearGradient id="exZcGP9DWgJ152-fill" x1="0.513624" y1="0.488932" x2="0.3375" y2="0.812425" spreadMethod="pad" gradientUnits="objectBoundingBox" gradientTransform="translate(0 0)"><stop id="exZcGP9DWgJ152-fill-0" offset="0%" stop-color="#d2dbed"/><stop id="exZcGP9DWgJ152-fill-1" offset="100%" stop-color="#e3d3b6"/></linearGradient><linearGradient id="exZcGP9DWgJ153-fill" x1="0.513624" y1="0.488932" x2="0.3375" y2="0.812425" spreadMethod="pad" gradientUnits="objectBoundingBox" gradientTransform="translate(0 0)"><stop id="exZcGP9DWgJ153-fill-0" offset="0%" stop-color="#d2dbed"/><stop id="exZcGP9DWgJ153-fill-1" offset="100%" stop-color="#e3d3b6"/></linearGradient><linearGradient id="exZcGP9DWgJ154-fill" x1="0.513624" y1="0.488932" x2="0.3375" y2="0.812425" spreadMethod="pad" gradientUnits="objectBoundingBox" gradientTransform="translate(0 0)"><stop id="exZcGP9DWgJ154-fill-0" offset="0%" stop-color="#d2dbed"/><stop id="exZcGP9DWgJ154-fill-1" offset="100%" stop-color="#e3d3b6"/></linearGradient><linearGradient id="exZcGP9DWgJ155-fill" x1="0.51139" y1="-0.010677" x2="0.477405" y2="0.829107" spreadMethod="pad" gradientUnits="objectBoundingBox" gradientTransform="translate(0 0)"><stop id="exZcGP9DWgJ155-fill-0" offset="0%" stop-color="#ffecc7"/><stop id="exZcGP9DWgJ155-fill-1" offset="100%" stop-color="#fdc544"/></linearGradient><linearGradient id="exZcGP9DWgJ183-fill" x1="0.509934" y1="1.152148" x2="0.543046" y2="0.049076" spreadMethod="pad" gradientUnits="objectBoundingBox" gradientTransform="translate(0 0)"><stop id="exZcGP9DWgJ183-fill-0" offset="0%" stop-color="#ea0303"/><stop id="exZcGP9DWgJ183-fill-1" offset="100%" stop-color="#452929"/></linearGradient><linearGradient id="exZcGP9DWgJ199-fill" x1="0.391992" y1="0.643008" x2="0.130629" y2="0.210495" spreadMethod="pad" gradientUnits="objectBoundingBox" gradientTransform="translate(0 0)"><stop id="exZcGP9DWgJ199-fill-0" offset="0%" stop-color="#1c7ac5"/><stop id="exZcGP9DWgJ199-fill-1" offset="100%" stop-color="#3a9ce1"/></linearGradient><linearGradient id="exZcGP9DWgJ200-fill" x1="0.802359" y1="0.264734" x2="0.513093" y2="0.870364" spreadMethod="pad" gradientUnits="objectBoundingBox" gradientTransform="translate(0 0)"><stop id="exZcGP9DWgJ200-fill-0" offset="0%" stop-color="#4497da"/><stop id="exZcGP9DWgJ200-fill-1" offset="100%" stop-color="#2477c6"/></linearGradient><radialGradient id="exZcGP9DWgJ202-fill" cx="0" cy="0" r="0.5" spreadMethod="pad" gradientUnits="objectBoundingBox" gradientTransform="translate(0.5 0.5)"><stop id="exZcGP9DWgJ202-fill-0" offset="48%" stop-color="#1450dc"/><stop id="exZcGP9DWgJ202-fill-1" offset="100%" stop-color="#2d2412"/></radialGradient><radialGradient id="exZcGP9DWgJ203-fill" cx="0" cy="0" r="0.5" spreadMethod="pad" gradientUnits="objectBoundingBox" gradientTransform="translate(0.5 0.5)"><stop id="exZcGP9DWgJ203-fill-0" offset="48%" stop-color="#1450dc"/><stop id="exZcGP9DWgJ203-fill-1" offset="100%" stop-color="#2d2412"/></radialGradient><linearGradient id="exZcGP9DWgJ884-fill" x1="0.533092" y1="-4.22794" x2="0.513956" y2="8.974675" spreadMethod="pad" gradientUnits="objectBoundingBox" gradientTransform="translate(0 0)"><stop id="exZcGP9DWgJ884-fill-0" offset="0%" stop-color="#d2dbed"/><stop id="exZcGP9DWgJ884-fill-1" offset="100%" stop-color="#2d2412"/></linearGradient></defs><g id="exZcGP9DWgJ3_to" transform="translate(1034.843363,453.624866)"><g id="exZcGP9DWgJ3_tr" transform="rotate(0)"><g transform="scale(1.28235,1.233182) translate(-288.33171,-155.229759)"><path d="M320.480045,156.178659l6.230477,13.415063l15.861373,7.779052c6.059962,2.24443,22.193421,14.164717,22.314645,14.045504c15.639259,12.23942,22.35767,29.785647,21.305658,28.331991c3.047387,9.14216,13.256451,34.223204,12.692732,39.891444l-221.128884.378563c1.947016-18.977071,15.202088-51.099543,27.257005-64.022267c6.950636-7.164037,28.592233-20.018005,41.492543-26.55023l4.044596-13.899737c1.579382,6.18734.167038,5.325495,1.903796,10.077687c1.776833,4.86185,1.353024,9.309909,3.264265,12.805963c3.411565,6.240456,16.324175,5.437743,20.795601,8.812101.000535-.07901,9.336078,14.623649,9.336078,14.623649s8.20918-10.989359,12.303768-13.726654c6.737676-4.504239,8.999864-4.215242,14.814742-12.303768c5.655183-7.86639,2.690034-13.58715,8.373921-21.67043" transform="translate(0 0.000001)" fill="url(#exZcGP9DWgJ4-fill)" stroke="#000" stroke-width="2.17" stroke-miterlimit="1"/><path d="M289.816752,198.631849c-1.963004,3.124759-1.543832,34.268588-2.404333,60.526396h-5.194132c.686003-20.077752.524493-53.313513.755889-60.571937.774494,1.259157,1.134084,1.394004,3.044662,4.232137c2.509481-3.329224-.195949-.140832,3.797914-4.186596Z" transform="translate(0 0.000001)" fill="#196fb3" stroke="#1c212a" stroke-width="0.2" stroke-miterlimit="1"/><path d="M252.557286,147.79782c-1.899732,10.581326-4.215983,24.179746,2.81983,30.223812c1.153849,3.541047,10.722005,8.045176,19.410731,8.748033q11.415023,12.427129,11.415023,12.510829t8.903556-9.398197l13.529259-2.494801q12.638564-23.43575,12.638564-23.519449t-3.599062-12.220069l-65.117901-3.850158Z" transform="translate(.040006 0.108447)" fill="#ffd5c4" stroke-width="1.172" stroke-miterlimit="1"/><g transform="matrix(.499037-1.025356 1.093933 0.532414-76.32366 374.323113)"><g transform="matrix(-.845547-.765143 0.816317-.902098 347.155846 601.297256)"><g transform="translate(-.646922 0.215647)"><path d="M284.770503,200.504934c-.39198-.399508-.39198-.439508-.25198-.639508.4-.36,1.42.94,1.16,1.12-.28.26-.22.22-.90802-.480492Z" transform="translate(-8.04 3.76)" fill="#fbbe08" stroke-width="1.172" stroke-miterlimit="1"/><path d="M284.330503,200.884934c-.39198-.399508-.39198-.439508-.25198-.639508.4-.36,1.42.94,1.16,1.12-.28.26-.22.22-.90802-.480492Z" transform="translate(-8.04 3.76)" fill="#fbbe08" stroke-width="1.172" stroke-miterlimit="1"/><path d="M284.330503,200.884934c-.39198-.399508-.39198-.439508-.25198-.639508.4-.36,1.42.94,1.16,1.12-.28.26-.22.22-.90802-.480492Z" transform="translate(-8.527785 4.060468)" fill="#fbbe08" stroke-width="1.172" stroke-miterlimit="1"/><path d="M284.330503,200.884934c-.39198-.399508-.39198-.439508-.25198-.639508.4-.36,1.42.94,1.16,1.12-.28.26-.22.22-.90802-.480492Z" transform="translate(-9.041304 4.382321)" fill="#fbbe08" stroke-width="1.172" stroke-miterlimit="1"/><path d="M284.330503,200.884934c-.39198-.399508-.39198-.439508-.25198-.639508.4-.36,1.42.94,1.16,1.12-.28.26-.22.22-.90802-.480492Z" transform="matrix(.994488 0.104854-.104854 0.994488 13.013676-24.086632)" fill="#fbbe08" stroke-width="1.172" stroke-miterlimit="1"/><path d="M284.330503,200.884934c-.39198-.399508-.39198-.439508-.25198-.639508.4-.36,1.42.94,1.16,1.12-.28.26-.22.22-.90802-.480492Z" transform="matrix(.98218 0.187942-.187942 0.98218 32.616764-45.012354)" fill="#fbbe08" stroke-width="1.172" stroke-miterlimit="1"/><path d="M284.330503,200.884934c-.39198-.399508-.39198-.439508-.25198-.639508.4-.36,1.42.94,1.16,1.12-.28.26-.22.22-.90802-.480492Z" transform="matrix(.98218 0.187942-.187942 0.98218 32.016182-44.811971)" fill="#fbbe08" stroke-width="1.172" stroke-miterlimit="1"/><path d="M284.330503,200.884934c-.39198-.399508-.39198-.439508-.25198-.639508.4-.36,1.42.94,1.16,1.12-.28.26-.22.22-.90802-.480492Z" transform="matrix(.948715 0.316131-.316131 0.948715 66.622519-74.396871)" fill="#fbbe08" stroke-width="1.172" stroke-miterlimit="1"/><path d="M284.330503,200.884934c-.39198-.399508-.39198-.439508-.25198-.639508.4-.36,1.42.94,1.16,1.12-.28.26-.22.22-.90802-.480492Z" transform="matrix(.846543 0.53232-.53232 0.846543 138.454396-115.256612)" fill="#fbbe08" stroke-width="1.172" stroke-miterlimit="1"/><path d="M284.330503,200.884934c-.39198-.399508-.39198-.439508-.25198-.639508.4-.36,1.42.94,1.16,1.12-.28.26-.22.22-.90802-.480492Z" transform="matrix(.82029 0.571947-.571947 0.82029 153.226108-121.202509)" fill="#fbbe08" stroke-width="1.172" stroke-miterlimit="1"/><path d="M284.330503,200.884934c-.39198-.399508-.39198-.439508-.25198-.639508.4-.36,1.42.94,1.16,1.12-.28.26-.22.22-.90802-.480492Z" transform="matrix(.82029 0.571947-.571947 0.82029 152.562735-121.122576)" fill="#fbbe08" stroke-width="1.172" stroke-miterlimit="1"/><path d="M284.330503,200.884934c-.39198-.399508-.39198-.439508-.25198-.639508.4-.36,1.42.94,1.16,1.12-.28.26-.22.22-.90802-.480492Z" transform="matrix(.82029 0.571947-.571947 0.82029 151.90885-121.063269)" fill="#fbbe08" stroke-width="1.172" stroke-miterlimit="1"/><path d="M285.250503,200.144934c-.39198-.399508-.39198-.439508-.25198-.639508.4-.36,1.42.94,1.16,1.12-.28.26-.22.22-.90802-.480492Z" transform="translate(-8.04 3.76)" fill="#fbbe08" stroke-width="1.172" stroke-miterlimit="1"/><path d="M285.699577,199.742696c-.39198-.399508-.39198-.439508-.25198-.639508.4-.36,1.42.94,1.16,1.12-.28.26-.22.22-.90802-.480492Z" transform="translate(-8.04 3.76)" fill="#fbbe08" stroke-width="1.172" stroke-miterlimit="1"/><path d="M286.165739,199.368371c-.39198-.399508-.39198-.439508-.25198-.639508.4-.36,1.42.94,1.16,1.12-.28.26-.22.22-.90802-.480492Z" transform="translate(-8.04 3.76)" fill="#fbbe08" stroke-width="1.172" stroke-miterlimit="1"/><path d="M286.581755,198.980088c-.39198-.399508-.39198-.439508-.25198-.639508.4-.36,1.42.94,1.16,1.12-.28.26-.22.22-.90802-.480492Z" transform="translate(-8.04 3.76)" fill="#fbbe08" stroke-width="1.172" stroke-miterlimit="1"/></g><g transform="matrix(-.52356-.851989-.851989 0.52356 598.484731 333.277966)"><path d="M284.770503,200.504934c-.39198-.399508-.39198-.439508-.25198-.639508.4-.36,1.42.94,1.16,1.12-.28.26-.22.22-.90802-.480492Z" transform="translate(-8.04 3.76)" fill="#fbbe08" stroke-width="1.172" stroke-miterlimit="1"/><path d="M284.330503,200.884934c-.39198-.399508-.39198-.439508-.25198-.639508.4-.36,1.42.94,1.16,1.12-.28.26-.22.22-.90802-.480492Z" transform="translate(-8.04 3.76)" fill="#fbbe08" stroke-width="1.172" stroke-miterlimit="1"/><path d="M284.330503,200.884934c-.39198-.399508-.39198-.439508-.25198-.639508.4-.36,1.42.94,1.16,1.12-.28.26-.22.22-.90802-.480492Z" transform="translate(-8.527785 4.060468)" fill="#fbbe08" stroke-width="1.172" stroke-miterlimit="1"/><path d="M284.330503,200.884934c-.39198-.399508-.39198-.439508-.25198-.639508.4-.36,1.42.94,1.16,1.12-.28.26-.22.22-.90802-.480492Z" transform="translate(-9.041304 4.382321)" fill="#fbbe08" stroke-width="1.172" stroke-miterlimit="1"/><path d="M284.330503,200.884934c-.39198-.399508-.39198-.439508-.25198-.639508.4-.36,1.42.94,1.16,1.12-.28.26-.22.22-.90802-.480492Z" transform="matrix(.994488 0.104854-.104854 0.994488 13.013676-24.086632)" fill="#fbbe08" stroke-width="1.172" stroke-miterlimit="1"/><path d="M284.330503,200.884934c-.39198-.399508-.39198-.439508-.25198-.639508.4-.36,1.42.94,1.16,1.12-.28.26-.22.22-.90802-.480492Z" transform="matrix(.98218 0.187942-.187942 0.98218 32.616764-45.012354)" fill="#fbbe08" stroke-width="1.172" stroke-miterlimit="1"/><path d="M284.330503,200.884934c-.39198-.399508-.39198-.439508-.25198-.639508.4-.36,1.42.94,1.16,1.12-.28.26-.22.22-.90802-.480492Z" transform="matrix(.98218 0.187942-.187942 0.98218 32.016182-44.811971)" fill="#fbbe08" stroke-width="1.172" stroke-miterlimit="1"/><path d="M284.330503,200.884934c-.39198-.399508-.39198-.439508-.25198-.639508.4-.36,1.42.94,1.16,1.12-.28.26-.22.22-.90802-.480492Z" transform="matrix(.948715 0.316131-.316131 0.948715 66.622519-74.396871)" fill="#fbbe08" stroke-width="1.172" stroke-miterlimit="1"/><path d="M284.330503,200.884934c-.39198-.399508-.39198-.439508-.25198-.639508.4-.36,1.42.94,1.16,1.12-.28.26-.22.22-.90802-.480492Z" transform="matrix(.846543 0.53232-.53232 0.846543 138.454396-115.256612)" fill="#fbbe08" stroke-width="1.172" stroke-miterlimit="1"/><path d="M284.330503,200.884934c-.39198-.399508-.39198-.439508-.25198-.639508.4-.36,1.42.94,1.16,1.12-.28.26-.22.22-.90802-.480492Z" transform="matrix(.82029 0.571947-.571947 0.82029 153.226108-121.202509)" fill="#fbbe08" stroke-width="1.172" stroke-miterlimit="1"/><path d="M284.330503,200.884934c-.39198-.399508-.39198-.439508-.25198-.639508.4-.36,1.42.94,1.16,1.12-.28.26-.22.22-.90802-.480492Z" transform="matrix(.754832 0.655918-.655918 0.754832 188.02643-132.048934)" fill="#fbbe08" stroke-width="1.172" stroke-miterlimit="1"/><path d="M284.330503,200.884934c-.39198-.399508-.39198-.439508-.25198-.639508.4-.36,1.469666.928694,1.16,1.12-.28.26-.22.22-.90802-.480492Z" transform="matrix(.662635 0.748943-.748943 0.662635 232.283516-140.165648)" fill="#fbbe08" stroke-width="1.172" stroke-miterlimit="1"/><path d="M285.250503,200.144934c-.39198-.399508-.39198-.439508-.25198-.639508.4-.36,1.42.94,1.16,1.12-.28.26-.22.22-.90802-.480492Z" transform="translate(-8.04 3.76)" fill="#fbbe08" stroke-width="1.172" stroke-miterlimit="1"/><path d="M285.699577,199.742696c-.39198-.399508-.39198-.439508-.25198-.639508.4-.36,1.42.94,1.16,1.12-.28.26-.22.22-.90802-.480492Z" transform="translate(-8.04 3.76)" fill="#fbbe08" stroke-width="1.172" stroke-miterlimit="1"/><path d="M286.165739,199.368371c-.39198-.399508-.39198-.439508-.25198-.639508.4-.36,1.42.94,1.16,1.12-.28.26-.22.22-.90802-.480492Z" transform="translate(-8.04 3.76)" fill="#fbbe08" stroke-width="1.172" stroke-miterlimit="1"/><path d="M286.581755,198.980088c-.39198-.399508-.39198-.439508-.25198-.639508.4-.36,1.42.94,1.16,1.12-.28.26-.22.22-.90802-.480492Z" transform="translate(-8.04 3.76)" fill="#fbbe08" stroke-width="1.172" stroke-miterlimit="1"/></g></g><ellipse rx="2.918701" ry="3.064636" transform="matrix(.816361 0 0 0.724775 252.093185 215.94597)" fill="url(#exZcGP9DWgJ43-fill)" stroke-width="0" stroke-miterlimit="1"/><ellipse rx="2.918701" ry="3.064636" transform="matrix(.816361 0 0 0.724775 269.343427 208.314723)" fill="url(#exZcGP9DWgJ44-fill)" stroke-width="0" stroke-miterlimit="1"/><ellipse rx="2.918701" ry="3.064636" transform="matrix(.816361 0 0 0.724775 232.317533 224.471746)" fill="url(#exZcGP9DWgJ45-fill)" stroke-width="0" stroke-miterlimit="1"/><path d="M130.616436,119.550483l-.290606,15.68283-16.285383-.519338-.085427,5.618665l15.886466.384856-.279922,29.944813l6.779339.089202.184525-30.130228l15.498993.384853.096869-5.676608h-15.498992l.290605-15.586618-6.296467-.192427Z" transform="matrix(.278799 0.669135-.67369 0.280697 320.541126 81.40613)" fill="url(#exZcGP9DWgJ46-fill)" stroke="#000" stroke-width="0.7" stroke-miterlimit="1"/></g><path d="M274.426262,124.903799c-11.478195,4.611458-16.513711,17.514899-5.534625,27.021991" transform="translate(.000001 0.000001)" fill="none" stroke="#000" stroke-width="1.172" stroke-miterlimit="1"/><path d="M245.702659,115.623517c-.027398,2.155188,1.759166,9.917194,2.526975,13.535343l.707329,6.779822q1.854101,12.485273,2.353557,15.108322c.499456,2.623049,4.464277,10.596096,5.572672,13.269776s13.830506,10.095775,14.156072,13.351437s12.534298,4.720709,19.045621,4.23236q6.511323-.488349,26.370859-16.929441q6.511323-12.208731,7.162455-19.04562t1.790614-18.068922l2.278963-7.488022q-.221634-7.867849-.488349-7.976371c-.266715-.108522-2.032424-2.821573-2.604529-8.139154-.057005-3.640249-.138396-8.497915-.162783-12.045948.15382-3.433037-2.880272-11.468194-4.883493-17.255006l-4.23236-5.860191q-8.283014-2.917994-15.440286-4.506258t-18.023066.332529c-2.646618,4.043582-4.489013,6.150566-6.744069,13.615148q-.536744,1.776707-1.139481-9.766985l-3.418445,8.46472-3.255662-5.046275-.162783-4.557927c-.838221.963864-2.303268,4.527062-2.930095,8.464721l-2.11618-3.744011c-2.742373,1.968433-7.082836,4.255882-8.790286,4.720709-1.765544,3.994679-4.668318,11.858881-4.72071,18.882837-.453431,2.896775-.233045,4.92755.052392,7.749026-.836413,4.330368-2.393549,8.920289-2.904932,11.923381Z" transform="translate(.000001 0.032954)" fill="#ffd5c4" stroke="#000" stroke-width="2.17" stroke-miterlimit="1"/><path d="M275.36649,141.077894c.543592,3.103687,2.498869,8.966532,5.144731,9.995478c3.086592,1.588606,9.028333,2.034255,12.053371-.19599c2.737998-.286302,3.764082-5.311402,4.458768-9.456506l-21.65687-.342982Z" transform="translate(.000002 0.000001)" fill="#0f1012" stroke-width="1.172" stroke-miterlimit="1"/><path d="M276.879456,163.534805c5.124362-4.330945,15.461087-4.07158,20.673451.325566" transform="translate(.000001 0)" fill="none" stroke="#000" stroke-width="1.172" stroke-miterlimit="1"/><g transform="translate(0 0.000001)"><path d="M305.846154,152.189594c-4.941256-12.541598,9.307403-18.154736-2.794299-23.285823" transform="translate(.000001 0)" opacity="0.8" fill="none" stroke="#000" stroke-width="1.172" stroke-miterlimit="1"/><path d="M307.74745,153.111599c-5.703764-13.927767,13.28511-14.965461.137736-22.233635" transform="matrix(-1 0 0 1 576.592005-1.116155)" opacity="0.8" fill="none" stroke="#000" stroke-width="1.172" stroke-miterlimit="1"/></g><g id="exZcGP9DWgJ54_to" transform="translate(285.903903,154.931592)"><path d="M276.727453,153.956438c4.385417,1.713117,14.381484,2.809863,19.360407.625297" transform="translate(-286.646441,-154.33756)" fill="none" stroke="#000" stroke-width="1.172" stroke-miterlimit="1"/></g><path d="M286.809224,172.487874l.162783,2.767312" fill="none" stroke="#000" stroke-width="1.172" stroke-miterlimit="1"/><path d="M302.924749,174.766837l6.999672-9.278635" transform="translate(0 0.000001)" fill="none" stroke="#000" stroke-width="1.172" stroke-miterlimit="1"/><path d="M269.717001,174.92962l-4.72071-9.278635" transform="translate(0 0.000001)" fill="none" stroke="#000" stroke-width="1.172" stroke-miterlimit="1"/><path d="M324.313851,135.923302l4.330625-20.572289c.831643-4.839252,4.201942-8.377197,6.674105-7.325242c3.200267,1.235059,3.871936,7.266098,3.418445,11.232035-.507748,3.453771-2.617172,10.858137-3.959012,15.276927-.50356,1.745608-1.527807,3.580189-4.241178,6.864796-2.230271,3.675093-5.88143-3.741167-6.222985-5.476227Z" transform="translate(.000001 0.000003)" fill="#ffd5c4" stroke="#000" stroke-width="1.172" stroke-miterlimit="1"/><path d="M335.318582,113.885965c-3.397149,2.80299-7.640145,11.644807-7.976371,18.557271c4.829584-2.713048,2.968788,2.620917,2.604528,5.697407" transform="translate(.000002 0.000001)" fill="none" stroke="#000" stroke-width="1.172" stroke-miterlimit="1"/><path d="M333.023912,125.117998c-.088933-1.116905-1.42834-2.896738-2.780599-3.525738" fill="none" stroke="#000" stroke-width="1.172" stroke-miterlimit="1"/><path d="M293.97168,106.72351c5.292279-10.573647,12.674119-6.845025,16.441091-1.139482-3.051356,6.234909-11.474976,5.434107-16.603876.162783" transform="translate(.000001 0)" fill="#f3ecec" stroke="#000" stroke-width="1.172" stroke-opacity="0.7" stroke-miterlimit="1"/><path d="M262.880111,106.235161c5.033386-9.027642,12.966239-6.791379,16.603874-.325567-3.934853,4.794749-12.196865,5.45659-16.603874.325567Z" transform="translate(0 0.000001)" fill="#faf1f1" stroke="#000" stroke-width="1.172" stroke-opacity="0.7" stroke-miterlimit="1"/><path d="M290.557169,100.596072c-.914926,2.677567-1.357717,10.370204-.677791,15.792533c1.084466,3.79563,1.31502,7.466758.673857,10.68279l1.953397-4.395143c2.064233-1.827243,3.334489,1.899393,3.906794,4.720709" fill="none" stroke="#000" stroke-width="1.172" stroke-miterlimit="1"/><path d="M282.576864,123.815733c-2.293864-2.89268-4.733553-.704394-5.209059,3.255662" transform="translate(.000001 0)" fill="none" stroke="#000" stroke-width="1.172" stroke-miterlimit="1"/><path d="M260.636414,138.588159c1.448913-5.177137,8.187438-11.114027,15.901884-10.11768c1.157649.673263,1.953816,1.248392,2.175802,1.313692.684812.570209,2.015753-2.255057,2.545277-2.422119c1.007583.508839,3.280087,3.862693,4.488194,5.586168.656251.266995,1.864809.334086,2.417117,0c1.773259-2.310205,3.988246-5.61198,4.671597-5.545115.888583-.26648,1.888046,1.192764,2.579754,2.322292l3.894243-1.611411c4.817083-.608224,11.477478,4.330746,12.757006,11.414163-.475634,3.347453-4.238248,5.405359-7.691998,4.189093-1.174231-.571015-3.106842-1.434875-4.152655-1.584002-1.874746.526077-8.373714.291524-12.997937.214878-2.873943-.560653-9.589513-.618023-12.622721-.402852-3.03946-.261095-8.144402.438347-10.07132,1.477126-2.579802-.349927-4.580741-2.840849-3.894243-4.834233Z" transform="translate(0 0.172548)" fill="#423333" stroke="#000" stroke-width="1.172" stroke-miterlimit="1"/><path d="M296.809619,143.184052c-1.174543,6.266923-2.251211,3.946669-9.562537,3.801596-9.781927-.194095-9.801698-.078691-11.638435-4.715431c4.35024.548345,14.709768,1.706749,21.200972.913835Z" transform="translate(0 0.000001)" opacity="0" fill="none" stroke="#000" stroke-width="1.172" stroke-miterlimit="1"/><path d="M244.519113,114.855169c-.225268-3.0973-2.506326-6.519633-4.751943-6.396845-4.302985-5.913138-8.596684,4.17975,4.060413,33.936884c2.827721,2.733306,4.838299-1.167337,5.476227-4.729469.03992-8.335449-2.403302-16.035487-4.784697-22.81057Z" transform="matrix(1 0 0 0.950806 0.000001 6.232356)" fill="#ffd5c4" stroke="#000" stroke-width="1.172" stroke-miterlimit="1"/><path d="M238.506948,113.5758c3.510389,1.813702,6.999986,10.669559,7.489085,17.29794-1.909788-1.700032-3.143852-.563929-2.32037,5.3547" fill="none" stroke="#000" stroke-width="1.172" stroke-miterlimit="1"/><path d="M244.032643,122.12773c-1.316616.317322-3.524816,2.786792-3.789409,4.698677" fill="none" stroke="#000" stroke-width="1.172" stroke-miterlimit="1"/><path d="M290.30942,101.244751c2.547073-5.004353,4.802524-11.902071,8.660149-13.255803c3.574227-1.467207,7.279003-4.205366,10.49856-2.902145c2.450131.925081,7.030671,4.083987,8.145872,5.710512c1.160164,1.948448,4.184633,4.633757,7.488976,4.6026l-5.382701-.156021-3.588468-1.638213c.437737,1.876001,3.851737,4.75016,7.801017,6.084793-3.046025,2.556172-10.352142-4.156291-15.680045-7.098925-3.258788-2.781127-8.035048-2.106275-9.751272-1.092143-3.651016.626514-6.213534,6.138825-8.192088,9.745345Z" transform="translate(.00001 0)" fill="#423333" stroke="#000" stroke-miterlimit="1"/><path d="M284.303666,101.412973q-3.510457-8.893159-5.148671-9.907291c-1.638214-1.014132-6.291968-4.910243-11.077445-6.084794s-7.228961.931448-9.283211,3.510458c-1.638214,1.950254-6.68331,5.488229-9.12719,5.694742c1.6212.123778,4.468571.031536,5.694742-.39005.965809.097193,2.352623-.512466,3.198417-.936123-1.217887,2.356756-5.686635,5.21103-8.035047,6.006784c3.167301-.425509,9.36122-2.374873,9.36122-2.808366c2.053308-1.905496,5.828224-4.571115,7.566987-5.382702c7.173956-1.725165,14.400066,4.315433,16.850198,10.297342Z" transform="translate(.000001 0.000001)" fill="#423333" stroke="#000" stroke-width="1.172" stroke-miterlimit="1"/><path d="M332.591841,107.796435c7.393074-24.120684-1.48536-42.213869-17.151599-39.015839c10.603798-9.232993.270476-17.3554-12.948842-19.157191-26.127062-1.934719-27.101106.258501-29.267929,1.064289-19.977589,3.551443-30.273394,20.617859-32.155411,32.400921-1.348223,5.441019-2.099314,18.382933.04938,24.715885l4.611916,6.740492l2.382495-8.897251c.398919-1.682835.34399-7.429036.387302-11.065762.276644-5.809525,3.017031-14.18011,4.483629-16.564763c1.984166-1.313377,3.79192-2.570489,8.795285-5.62209l2.213153,2.655783c.135164-.353384.629256-1.962836,1.146727-2.422744.791584-1.772675.861953-2.126921,1.037752-2.652033c1.796563,3.176462,3.662233,5.730428,4.266315,6.226513l1.23991-3.862848c.813045-.08978,3.368847-1.24951,3.098414-4.039003.275181.427607-.196579,4.206195.496389,7.632932l3.982711-6.347445l1.329486-4.222381l2.882645-1.498975l8.993853-.691835c4.280189-.390945,12.583775.728905,16.834647,2.997951c4.034494.619019,10.38702,4.386784,12.222415,12.683638c3.02563,4.141548,2.333042,20.199549,3.911505,28.567352l2.489194,7.592042l4.668658-7.217638Z" transform="translate(.000001 0.000001)" fill="#423333" stroke="#000" stroke-width="2.17" stroke-miterlimit="1"/><path d="M296.129269,144.971107l.133415-1.356384c-4.972804.552031-15.278593-.545692-20.123399-.867196l.692879,1.722555c5.35193,1.415161,14.754262,1.981493,19.297105.501025Z" fill="#f4e9e9" stroke="#000" stroke-width="0.4" stroke-miterlimit="1"/><path d="M293.875129,149.706637c-1.655932,4.206925-9.880417,4.533904-14.16309.418613c2.874998-1.71494,11.531852-3.789887,14.16309-.418613Z" fill="url(#exZcGP9DWgJ74-fill)" stroke="#0f1012" stroke-width="1.172" stroke-miterlimit="1"/><path d="M328.35112,142.958368c-1.007869,4.669327-3.821736,9.51721-6.884504,11.63105c1.234569-4.688967,2.510685-13.327978,2.89737-17.197295.474122,1.778235,2.239067,5.144112,3.987134,5.566245Z" transform="translate(.000001 0.000001)" fill="#5e5151" stroke="#000" stroke-width="1.172" stroke-miterlimit="1"/><path d="M252.803307,155.725358c-2.540784-9.021623-1.881829-14.138424-2.430315-12.409335-1.234718-15.631143-.590517.759403-4.725665.035864-.400221.423601,4.243861,7.468102,7.15598,12.373471Z" transform="translate(.000001 0.000003)" fill="#5e4e4d" stroke="#000" stroke-width="1.172" stroke-miterlimit="1"/><path d="M283.91606,104.118659c.225814,2.318404.049513,1.373119.099615,4.831311.213456.672658-.203918,12.182362-.329575,16.537354-.508979-2.982804-1.411926-3.960843-2.957709-3.936097.630078-1.383652,2.414661-8.041191,2.486637-10.584778l-.793916-4.737801c-.141544-.733419-2.046176-2.582877-2.884773-3.018948-4.442936-5.180452-12.698419-5.389511-16.200953.957062-3.679996-.266544-12.145609-.68742-12.244226-1.571106c1.972951,1.995234,7.597037-4.944824,12.299063-9.122484c2.319094-3.122392,11.915053-2.787873,14.340645.696986c1.955837.901788,4.46268,4.060155,5.544554,6.095076.748844.798931.498027,2.627599.640638,3.853425Z" transform="translate(.000005 0.000003)" opacity="0.18" stroke-width="1.172" stroke-miterlimit="1"/><path d="M290.483068,101.87205c1.521572-3.886385,5.648215-11.613096,9.797338-10.80409c1.231562-1.617939,11.30741,1.42736,13.772184,5.174541c2.789623,3.913023,6.48427,7.587797,8.175328,8.264497-.293429,1.093493-8.466334,1.967874-10.485105,1.266397-3.527664-7.592491-11.796129-10.638137-17.746481-2.019239-1.288683.473515-3.314342-.860037-3.513264-1.882106Z" transform="translate(.000002 0)" opacity="0.18" stroke-width="1.172" stroke-miterlimit="1"/><path d="M294.824083,109.926126c3.473444,3.774375,10.61015,4.435083,14.273411,1.768387" transform="translate(.000001 0)" opacity="0.7" fill="none" stroke="#000" stroke-width="0.55" stroke-miterlimit="1"/><path d="M298.943308,110.644437c5.091407,4.017786,12.548141.88821,13.810954-.615339" transform="translate(-34.735946 0.786474)" opacity="0.7" fill="none" stroke="#000" stroke-width="0.55" stroke-miterlimit="1"/><path d="M297.145418,113.877664c5.274943,2.831742,12.125274,2.04859,14.317314-.61761" opacity="0.7" fill="none" stroke="#000" stroke-width="0.3" stroke-miterlimit="1"/><path d="M296.823806,112.422085c3.424054,3.757187,10.632453,4.411386,14.638926.837969" transform="translate(-34.735947 0.786474)" opacity="0.7" fill="none" stroke="#000" stroke-width="0.3" stroke-miterlimit="1"/><path d="M293.747051,104.078884c5.876836-9.037182,14.166508-6.100888,17.6963.747731" fill="none" stroke="#000" stroke-width="0.6" stroke-miterlimit="1"/><path d="M293.70533,105.044343c5.876836-9.037182,14.30903-6.954174,17.838822-.105555" transform="translate(-31.349882-.316666)" fill="none" stroke="#000" stroke-width="0.6" stroke-miterlimit="1"/><path d="M315.763574,107.651377c3.548451-1.050667,7.965685,2.239407,8.972772,6.314173" opacity="0.3" fill="none" stroke="#000" stroke-width="0.3" stroke-miterlimit="1"/><path d="M315.343429,107.40677c3.116018-.487337,8.136922,2.999649,9.224669,9.224797" transform="matrix(.337574-.941299 0.941299 0.337574 41.532995 374.266218)" opacity="0.3" fill="none" stroke="#000" stroke-width="0.3" stroke-miterlimit="1"/><path d="M315.258409,109.5347c4.711183-.912718,7.948329,2.707381,8.333078,7.400705" transform="translate(0 0.000001)" opacity="0.3" fill="none" stroke="#000" stroke-width="0.2" stroke-miterlimit="1"/><path d="M311.760092,111.275694c4.444054-.298441,11.797994,2.692571,12.02257,6.190923" transform="matrix(.337574-.941299 0.941299 0.337574 38.244033 374.826763)" opacity="0.3" fill="none" stroke="#000" stroke-width="0.2" stroke-miterlimit="1"/><path d="M327.717352,110.76927c-2.162128-.659949-1.574406,5.037664-1.34983,8.536016" transform="matrix(.337574-.941299 0.941299 0.337574 38.244033 374.826763)" opacity="0.3" fill="none" stroke="#000" stroke-width="0.2" stroke-miterlimit="1"/><path d="M251.509164,152.777012c-2.050438,4.696164-4.791103,14.381938-5.272569,18.184956-.08192,3.958416-.811985,6.228415,1.800937,14.584142.866825,2.702402,4.208271,8.02496,5.775239,11.131981c1.180287,3.806555,3.425564,7.191448,3.766459,9.960194.792322.141394.798722,4.384724,1.630947,5.850315.562815-6.891114,2.178485-13.240606,4.060593-17.400792c4.453707-6.966271,13.003533-11.365369,15.997876-2.645841-.214635-.227141-1.724742-2.703671-1.724742-2.802705-1.574336-2.33143-3.529453-2.307475-3.601317-2.33143-5.222135-.431185-6.69135-2.848245-14.363957-6.949121-5.508354-4.461941-7.28998-20.949729-8.069466-27.581699Z" transform="translate(.000002 0.000007)" fill="url(#exZcGP9DWgJ90-fill)" stroke="#000" stroke-width="1.172" stroke-miterlimit="1"/><path d="M319.203553,161.066597c-.560131,5.3798-4.001202,7.66896-4.334635,10.781003-2.94382,5.0025-7.055373,9.164216-8.335828,10.66986-3.676897,2.306821-7.377136,4.979563-8.558117,5.001497-2.222545,1.199662-3.385889,3.056382-3.568138,4.471989c2.39023-3.941827,6.386916-1.4061,9.3743-.083699c4.436053,4.184955,5.083975,15.344333,5.189345,19.250795-1.431014,3.985024,10.325734-13.162679,9.960193-12.889663c1.605579-2.306201,4.074547-7.579401,5.273044-10.29499l2.224216-6.122795c1.245082-2.952407.865623-9.828844.222289-13.893047-.216247-4.26743-2.918616-9.254694-5.001497-10.781005l-2.445172,3.890055Z" transform="translate(.000004 0.000002)" fill="url(#exZcGP9DWgJ91-fill)" stroke="#000" stroke-width="1.172" stroke-miterlimit="1"/><g id="exZcGP9DWgJ92_to" transform="translate(286.842773,107.128662)"><g transform="translate(-286.842773,-107.128662)"><ellipse rx="3.782264" ry="3.639537" transform="matrix(.887956 0 0 0.884873 271.14318 106.977643)" opacity="0.85" fill="url(#exZcGP9DWgJ93-fill)" stroke-width="0" stroke-miterlimit="1"/><ellipse rx="3.782264" ry="3.639537" transform="matrix(.887956 0 0 0.884873 302.542364 107.279676)" opacity="0.85" fill="url(#exZcGP9DWgJ94-fill)" stroke-width="0" stroke-miterlimit="1"/></g></g><path d="M317.123416,62.010021c-9.942279-13.934823-26.897188-5.904816-35.691336,2.349586" transform="translate(0 0.000001)" opacity="0.53" fill="none" stroke="#000" stroke-width="0.8" stroke-miterlimit="1"/><path d="M310.340266,66.078588q.009872-6.803133.014103-9.718762" opacity="0.53" fill="none" stroke="#000" stroke-width="0.8" stroke-miterlimit="1"/><path d="M303.697208,63.856126l.167827-9.286461" opacity="0.53" fill="none" stroke="#000" stroke-width="0.8" stroke-miterlimit="1"/><path d="M298.21484,62.793216l-2.517414-6.936874" transform="translate(0 0.000001)" opacity="0.53" fill="none" stroke="#000" stroke-width="0.8" stroke-miterlimit="1"/><path d="M292.173045,63.072929l-3.430784-4.68454" transform="translate(.000001 0.000001)" opacity="0.53" fill="none" stroke="#000" stroke-width="0.8" stroke-miterlimit="1"/><path d="M284.984836,53.4713c-4.595456,2.815857-8.987509,7.026476-10.677599,15.742612" transform="matrix(.980583 0.196103-.196103 0.980583 20.455209-55.795444)" opacity="0.38" fill="none" stroke="#000" stroke-width="0.8" stroke-miterlimit="1"/><path d="M273.348992,54.840222c-2.737846,2.190276-7.454485,8.687873-7.392183,15.195044" transform="matrix(.990624 0.136617-.136617 0.990624 14.661078-39.346267)" opacity="0.38" fill="none" stroke="#000" stroke-width="0.8" stroke-miterlimit="1"/><path d="M264.040316,58.536314c-5.338799,4.380553-10.586148,12.947572-10.951382,18.069782" transform="matrix(.999316-.036978 0.032481 0.877782 1.954154 14.166425)" opacity="0.38" fill="none" stroke="#000" stroke-width="0.8" stroke-miterlimit="1"/><path d="M322.711006,77.397312c4.598216,2.434574,9.716856,10.080584,9.968105,15.493903" fill="none" stroke="#000" stroke-width="0.3" stroke-opacity="0.4" stroke-miterlimit="1"/><path d="M330.295434,108.818514c.914495-2.49678.290761-9.179486-.650094-11.159945" transform="translate(0 0.000001)" fill="none" stroke="#000" stroke-width="0.3" stroke-opacity="0.4" stroke-miterlimit="1"/><path d="M251.092333,69.05444c-3.199554,3.720678-5.83438,12.973449-4.117261,16.577393" fill="none" stroke="#000" stroke-width="0.3" stroke-opacity="0.4" stroke-miterlimit="1"/><path d="M242.857811,91.916074c-.723531,4.074539.872282,9.27529,2.492026,13.001877" fill="none" stroke="#000" stroke-width="0.3" stroke-opacity="0.4" stroke-miterlimit="1"/><path d="M268.804226,132.157577c1.683474.476021,2.919362,4.320214,1.448943,7.473499" fill="none" stroke="#000" stroke-width="0.4" stroke-opacity="0.3" stroke-miterlimit="1"/><path d="M276.506505,131.013674c2.104055.974993,3.837458,5.745775,1.830244,8.388621" fill="none" stroke="#000" stroke-width="0.4" stroke-opacity="0.3" stroke-miterlimit="1"/><path d="M294.73269,131.547496c-1.701909.512864-3.271484,5.09053-2.297614,7.85565" fill="none" stroke="#000" stroke-width="0.4" stroke-opacity="0.3" stroke-miterlimit="1"/><path d="M302.053668,131.852535c-2.314218.572078-4.015497,5.484947-2.201757,8.121136" transform="translate(0 0.000001)" fill="none" stroke="#000" stroke-width="0.4" stroke-opacity="0.3" stroke-miterlimit="1"/><path id="exZcGP9DWgJ111" d="M276.168096,142.675525c4.848676,1.077661,14.761612,1.382752,20.331631.77597-1.09673,6.434151-1.75634,8.470203-11.186649,8.408266q-9.430309-.061937-9.144982-9.184236Z" transform="translate(.000003 0)" opacity="0" fill="#ffd5c4" stroke-width="1.172" stroke-miterlimit="1"/>

</g></g></g>

<rect width="1279.81967" height="178.659391" rx="0" ry="0" transform="matrix(1.093022 0 0 0.8272-59.999771 572.580553)" fill="#fff" stroke-width="0"/>

<rect width="1381.174517" height="109.085301" rx="0" ry="0" transform="matrix(1.057961 0 0 1-69.999841 627.025745)" fill="#003366" stroke-width="0"/>

<g>


</g></svg>
