<svg id="euYUkiCJ0Rr1" xmlns="http://www.w3.org/2000/svg" xmlns:xlink="http://www.w3.org/1999/xlink" viewBox="0 0 1600 900" shape-rendering="geometricPrecision" text-rendering="geometricPrecision">
<style><![CDATA[
#euYUkiCJ0Rr4 {animation: euYUkiCJ0Rr4_c_o 10000ms linear infinite alternate forwards}@keyframes euYUkiCJ0Rr4_c_o { 0% {opacity: 1} 36% {opacity: 1} 40% {opacity: 0} 100% {opacity: 0}} #euYUkiCJ0Rr5_tr {animation: euYUkiCJ0Rr5_tr__tr 10000ms linear infinite alternate forwards}@keyframes euYUkiCJ0Rr5_tr__tr { 0% {transform: translate(351.4856px,241.521025px) rotate(0deg)} 35% {transform: translate(351.4856px,241.521025px) rotate(0deg)} 58% {transform: translate(351.4856px,241.521025px) rotate(65.50948deg)} 100% {transform: translate(351.4856px,241.521025px) rotate(65.50948deg)}} #euYUkiCJ0Rr5_ts {animation: euYUkiCJ0Rr5_ts__ts 10000ms linear infinite alternate forwards}@keyframes euYUkiCJ0Rr5_ts__ts { 0% {transform: scale(0.872479,0.86428)} 35% {transform: scale(0.872479,0.86428)} 58% {transform: scale(3.44358,3.411202)} 100% {transform: scale(3.44358,3.411202)}} #euYUkiCJ0Rr5 {animation: euYUkiCJ0Rr5_c_o 10000ms linear infinite alternate forwards}@keyframes euYUkiCJ0Rr5_c_o { 0% {opacity: 1} 37% {opacity: 1} 48% {opacity: 0} 100% {opacity: 0}} #euYUkiCJ0Rr6 {animation: euYUkiCJ0Rr6_c_o 10000ms linear infinite alternate forwards}@keyframes euYUkiCJ0Rr6_c_o { 0% {opacity: 1} 36% {opacity: 1} 40% {opacity: 0} 100% {opacity: 0}} #euYUkiCJ0Rr18_to {animation: euYUkiCJ0Rr18_to__to 10000ms linear infinite alternate forwards}@keyframes euYUkiCJ0Rr18_to__to { 0% {offset-distance: 0%} 32% {offset-distance: 0%} 58% {offset-distance: 100%} 100% {offset-distance: 100%}} #euYUkiCJ0Rr18_ts {animation: euYUkiCJ0Rr18_ts__ts 10000ms linear infinite alternate forwards}@keyframes euYUkiCJ0Rr18_ts__ts { 0% {transform: rotate(0.226636deg) scale(1,1)} 18% {transform: rotate(0.226636deg) scale(1,1)} 32% {transform: rotate(0.226636deg) scale(1,1)} 58% {transform: rotate(0.226636deg) scale(3.038215,3.899773)} 100% {transform: rotate(0.226636deg) scale(3.038215,3.899773)}} #euYUkiCJ0Rr20_to {animation: euYUkiCJ0Rr20_to__to 10000ms linear infinite alternate forwards}@keyframes euYUkiCJ0Rr20_to__to { 0% {transform: translate(-368.298416px,340.950987px)} 5% {transform: translate(342px,346.499985px)} 100% {transform: translate(342px,346.499985px)}} #euYUkiCJ0Rr21_to {animation: euYUkiCJ0Rr21_to__to 10000ms linear infinite alternate forwards}@keyframes euYUkiCJ0Rr21_to__to { 0% {transform: translate(-366.776529px,292.685131px)} 4% {transform: translate(342px,291.114517px)} 34% {transform: translate(342.005988px,292.568977px)} 100% {transform: translate(342.005988px,292.568977px)}} #euYUkiCJ0Rr22_to {animation: euYUkiCJ0Rr22_to__to 10000ms linear infinite alternate forwards}@keyframes euYUkiCJ0Rr22_to__to { 0% {transform: translate(-365.728364px,234.003239px)} 3% {transform: translate(342px,235.730003px)} 100% {transform: translate(342px,235.730003px)}} #euYUkiCJ0Rr23 {animation: euYUkiCJ0Rr23_c_o 10000ms linear infinite alternate forwards}@keyframes euYUkiCJ0Rr23_c_o { 0% {opacity: 1} 13% {opacity: 1} 30% {opacity: 0} 100% {opacity: 0}} #euYUkiCJ0Rr24_to {animation: euYUkiCJ0Rr24_to__to 10000ms linear infinite alternate forwards}@keyframes euYUkiCJ0Rr24_to__to { 0% {offset-distance: 0%} 26% {offset-distance: 0%} 32% {offset-distance: 0%} 48% {offset-distance: 100%} 100% {offset-distance: 100%}} #euYUkiCJ0Rr24_ts {animation: euYUkiCJ0Rr24_ts__ts 10000ms linear infinite alternate forwards}@keyframes euYUkiCJ0Rr24_ts__ts { 0% {transform: scale(1,1)} 26% {transform: scale(1,1)} 32% {transform: scale(1,1)} 48% {transform: scale(3.031542,5.190194)} 100% {transform: scale(3.031542,5.190194)}} #euYUkiCJ0Rr26_to {animation: euYUkiCJ0Rr26_to__to 10000ms linear infinite alternate forwards}@keyframes euYUkiCJ0Rr26_to__to { 0% {transform: translate(-364.320403px,180.240715px)} 4% {transform: translate(342px,180.344994px)} 53% {transform: translate(342px,186.825747px)} 55% {transform: translate(344.102541px,183.267232px)} 56% {transform: translate(345.548609px,185.759932px)} 57% {transform: translate(347.061753px,185.645487px)} 59% {transform: translate(349.666038px,187.034355px)} 100% {transform: translate(349.666038px,187.034355px)}} #euYUkiCJ0Rr27_to {animation: euYUkiCJ0Rr27_to__to 10000ms linear infinite alternate forwards}@keyframes euYUkiCJ0Rr27_to__to { 0% {transform: translate(-368.298416px,119.412501px)} 2% {transform: translate(342px,124.961498px)} 100% {transform: translate(342px,124.961498px)}} #euYUkiCJ0Rr30_to {animation: euYUkiCJ0Rr30_to__to 10000ms linear infinite alternate forwards}@keyframes euYUkiCJ0Rr30_to__to { 0% {transform: translate(136.800003px,93.267997px)} 18% {transform: translate(136.800003px,90.753319px)} 100% {transform: translate(136.800003px,90.753319px)}} #euYUkiCJ0Rr30 {animation: euYUkiCJ0Rr30_c_o 10000ms linear infinite alternate forwards}@keyframes euYUkiCJ0Rr30_c_o { 0% {opacity: 0} 4% {opacity: 0} 10% {opacity: 1} 48% {opacity: 1} 51% {opacity: 0} 100% {opacity: 0}} #euYUkiCJ0Rr32 {animation: euYUkiCJ0Rr32_c_o 10000ms linear infinite alternate forwards}@keyframes euYUkiCJ0Rr32_c_o { 0% {opacity: 0} 4% {opacity: 1} 5% {opacity: 1} 100% {opacity: 1}} #euYUkiCJ0Rr33 {animation: euYUkiCJ0Rr33_c_o 10000ms linear infinite alternate forwards}@keyframes euYUkiCJ0Rr33_c_o { 0% {opacity: 0} 4% {opacity: 1} 100% {opacity: 1}} #euYUkiCJ0Rr34 {animation: euYUkiCJ0Rr34_c_o 10000ms linear infinite alternate forwards}@keyframes euYUkiCJ0Rr34_c_o { 0% {opacity: 0} 4% {opacity: 1} 100% {opacity: 1}} #euYUkiCJ0Rr35 {animation: euYUkiCJ0Rr35_c_o 10000ms linear infinite alternate forwards}@keyframes euYUkiCJ0Rr35_c_o { 0% {opacity: 0} 4% {opacity: 1} 100% {opacity: 1}} #euYUkiCJ0Rr36 {animation: euYUkiCJ0Rr36_c_o 10000ms linear infinite alternate forwards}@keyframes euYUkiCJ0Rr36_c_o { 0% {opacity: 0} 4% {opacity: 1} 100% {opacity: 1}} #euYUkiCJ0Rr37 {animation: euYUkiCJ0Rr37_c_o 10000ms linear infinite alternate forwards}@keyframes euYUkiCJ0Rr37_c_o { 0% {opacity: 0} 4% {opacity: 1} 100% {opacity: 1}} #euYUkiCJ0Rr38 {animation: euYUkiCJ0Rr38_c_o 10000ms linear infinite alternate forwards}@keyframes euYUkiCJ0Rr38_c_o { 0% {opacity: 0} 4% {opacity: 1} 100% {opacity: 1}} #euYUkiCJ0Rr39 {animation: euYUkiCJ0Rr39_c_o 10000ms linear infinite alternate forwards}@keyframes euYUkiCJ0Rr39_c_o { 0% {opacity: 0} 4% {opacity: 1} 100% {opacity: 1}} #euYUkiCJ0Rr40 {animation: euYUkiCJ0Rr40_c_o 10000ms linear infinite alternate forwards}@keyframes euYUkiCJ0Rr40_c_o { 0% {opacity: 0} 4% {opacity: 1} 100% {opacity: 1}} #euYUkiCJ0Rr41 {animation: euYUkiCJ0Rr41_c_o 10000ms linear infinite alternate forwards}@keyframes euYUkiCJ0Rr41_c_o { 0% {opacity: 0} 4% {opacity: 1} 100% {opacity: 1}} #euYUkiCJ0Rr42 {animation: euYUkiCJ0Rr42_c_o 10000ms linear infinite alternate forwards}@keyframes euYUkiCJ0Rr42_c_o { 0% {opacity: 0} 4% {opacity: 1} 100% {opacity: 1}} #euYUkiCJ0Rr43 {animation: euYUkiCJ0Rr43_c_o 10000ms linear infinite alternate forwards}@keyframes euYUkiCJ0Rr43_c_o { 0% {opacity: 0} 4% {opacity: 1} 100% {opacity: 1}} #euYUkiCJ0Rr44 {animation: euYUkiCJ0Rr44_c_o 10000ms linear infinite alternate forwards}@keyframes euYUkiCJ0Rr44_c_o { 0% {opacity: 0} 4% {opacity: 1} 100% {opacity: 1}} #euYUkiCJ0Rr45 {animation: euYUkiCJ0Rr45_c_o 10000ms linear infinite alternate forwards}@keyframes euYUkiCJ0Rr45_c_o { 0% {opacity: 0} 4% {opacity: 1} 100% {opacity: 1}} #euYUkiCJ0Rr46 {animation: euYUkiCJ0Rr46_c_o 10000ms linear infinite alternate forwards}@keyframes euYUkiCJ0Rr46_c_o { 0% {opacity: 0} 4% {opacity: 1} 100% {opacity: 1}} #euYUkiCJ0Rr47 {animation: euYUkiCJ0Rr47_c_o 10000ms linear infinite alternate forwards}@keyframes euYUkiCJ0Rr47_c_o { 0% {opacity: 0} 4% {opacity: 1} 100% {opacity: 1}} #euYUkiCJ0Rr48 {animation: euYUkiCJ0Rr48_c_o 10000ms linear infinite alternate forwards}@keyframes euYUkiCJ0Rr48_c_o { 0% {opacity: 0} 4% {opacity: 1} 100% {opacity: 1}} #euYUkiCJ0Rr49 {animation: euYUkiCJ0Rr49_c_o 10000ms linear infinite alternate forwards}@keyframes euYUkiCJ0Rr49_c_o { 0% {opacity: 0} 4% {opacity: 1} 100% {opacity: 1}} #euYUkiCJ0Rr50 {animation: euYUkiCJ0Rr50_c_o 10000ms linear infinite alternate forwards}@keyframes euYUkiCJ0Rr50_c_o { 0% {opacity: 0} 4% {opacity: 1} 100% {opacity: 1}} #euYUkiCJ0Rr51 {animation: euYUkiCJ0Rr51_c_o 10000ms linear infinite alternate forwards}@keyframes euYUkiCJ0Rr51_c_o { 0% {opacity: 0} 4% {opacity: 1} 100% {opacity: 1}} #euYUkiCJ0Rr52 {animation: euYUkiCJ0Rr52_c_o 10000ms linear infinite alternate forwards}@keyframes euYUkiCJ0Rr52_c_o { 0% {opacity: 0} 4% {opacity: 1} 100% {opacity: 1}} #euYUkiCJ0Rr53 {animation: euYUkiCJ0Rr53_c_o 10000ms linear infinite alternate forwards}@keyframes euYUkiCJ0Rr53_c_o { 0% {opacity: 0} 4% {opacity: 1} 100% {opacity: 1}} #euYUkiCJ0Rr54 {animation: euYUkiCJ0Rr54_c_o 10000ms linear infinite alternate forwards}@keyframes euYUkiCJ0Rr54_c_o { 0% {opacity: 0} 4% {opacity: 1} 100% {opacity: 1}} #euYUkiCJ0Rr55 {animation: euYUkiCJ0Rr55_c_o 10000ms linear infinite alternate forwards}@keyframes euYUkiCJ0Rr55_c_o { 0% {opacity: 0} 4% {opacity: 1} 100% {opacity: 1}} #euYUkiCJ0Rr56 {animation: euYUkiCJ0Rr56_c_o 10000ms linear infinite alternate forwards}@keyframes euYUkiCJ0Rr56_c_o { 0% {opacity: 0} 4% {opacity: 1} 100% {opacity: 1}} #euYUkiCJ0Rr57 {animation: euYUkiCJ0Rr57_c_o 10000ms linear infinite alternate forwards}@keyframes euYUkiCJ0Rr57_c_o { 0% {opacity: 0} 4% {opacity: 1} 100% {opacity: 1}} #euYUkiCJ0Rr58 {animation: euYUkiCJ0Rr58_c_o 10000ms linear infinite alternate forwards}@keyframes euYUkiCJ0Rr58_c_o { 0% {opacity: 0} 4% {opacity: 1} 100% {opacity: 1}} #euYUkiCJ0Rr59 {animation: euYUkiCJ0Rr59_c_o 10000ms linear infinite alternate forwards}@keyframes euYUkiCJ0Rr59_c_o { 0% {opacity: 0} 4% {opacity: 1} 100% {opacity: 1}} #euYUkiCJ0Rr60 {animation: euYUkiCJ0Rr60_c_o 10000ms linear infinite alternate forwards}@keyframes euYUkiCJ0Rr60_c_o { 0% {opacity: 0} 4% {opacity: 1} 100% {opacity: 1}} #euYUkiCJ0Rr61 {animation: euYUkiCJ0Rr61_c_o 10000ms linear infinite alternate forwards}@keyframes euYUkiCJ0Rr61_c_o { 0% {opacity: 0} 4% {opacity: 1} 100% {opacity: 1}} #euYUkiCJ0Rr62 {animation: euYUkiCJ0Rr62_c_o 10000ms linear infinite alternate forwards}@keyframes euYUkiCJ0Rr62_c_o { 0% {opacity: 0} 4% {opacity: 1} 100% {opacity: 1}} #euYUkiCJ0Rr63 {animation: euYUkiCJ0Rr63_c_o 10000ms linear infinite alternate forwards}@keyframes euYUkiCJ0Rr63_c_o { 0% {opacity: 0} 4% {opacity: 1} 100% {opacity: 1}} #euYUkiCJ0Rr64 {animation: euYUkiCJ0Rr64_c_o 10000ms linear infinite alternate forwards}@keyframes euYUkiCJ0Rr64_c_o { 0% {opacity: 0} 4% {opacity: 1} 100% {opacity: 1}} #euYUkiCJ0Rr65 {animation: euYUkiCJ0Rr65_c_o 10000ms linear infinite alternate forwards}@keyframes euYUkiCJ0Rr65_c_o { 0% {opacity: 0} 4% {opacity: 1} 100% {opacity: 1}} #euYUkiCJ0Rr66 {animation: euYUkiCJ0Rr66_c_o 10000ms linear infinite alternate forwards}@keyframes euYUkiCJ0Rr66_c_o { 0% {opacity: 0} 4% {opacity: 1} 100% {opacity: 1}} #euYUkiCJ0Rr67 {animation: euYUkiCJ0Rr67_c_o 10000ms linear infinite alternate forwards}@keyframes euYUkiCJ0Rr67_c_o { 0% {opacity: 0} 4% {opacity: 1} 100% {opacity: 1}} #euYUkiCJ0Rr68 {animation: euYUkiCJ0Rr68_c_o 10000ms linear infinite alternate forwards}@keyframes euYUkiCJ0Rr68_c_o { 0% {opacity: 0} 4% {opacity: 1} 100% {opacity: 1}} #euYUkiCJ0Rr69 {animation: euYUkiCJ0Rr69_c_o 10000ms linear infinite alternate forwards}@keyframes euYUkiCJ0Rr69_c_o { 0% {opacity: 0} 16% {opacity: 1} 100% {opacity: 1}} #euYUkiCJ0Rr70 {animation: euYUkiCJ0Rr70_c_o 10000ms linear infinite alternate forwards}@keyframes euYUkiCJ0Rr70_c_o { 0% {opacity: 0} 16% {opacity: 1} 100% {opacity: 1}} #euYUkiCJ0Rr71 {animation: euYUkiCJ0Rr71_c_o 10000ms linear infinite alternate forwards}@keyframes euYUkiCJ0Rr71_c_o { 0% {opacity: 0} 16% {opacity: 1} 100% {opacity: 1}} #euYUkiCJ0Rr72 {animation: euYUkiCJ0Rr72_c_o 10000ms linear infinite alternate forwards}@keyframes euYUkiCJ0Rr72_c_o { 0% {opacity: 0} 16% {opacity: 1} 100% {opacity: 1}} #euYUkiCJ0Rr73 {animation: euYUkiCJ0Rr73_c_o 10000ms linear infinite alternate forwards}@keyframes euYUkiCJ0Rr73_c_o { 0% {opacity: 0} 14% {opacity: 1} 100% {opacity: 1}} #euYUkiCJ0Rr74 {animation: euYUkiCJ0Rr74_c_o 10000ms linear infinite alternate forwards}@keyframes euYUkiCJ0Rr74_c_o { 0% {opacity: 0} 14% {opacity: 1} 100% {opacity: 1}} #euYUkiCJ0Rr75 {animation: euYUkiCJ0Rr75_c_o 10000ms linear infinite alternate forwards}@keyframes euYUkiCJ0Rr75_c_o { 0% {opacity: 0} 14% {opacity: 1} 100% {opacity: 1}} #euYUkiCJ0Rr76 {animation: euYUkiCJ0Rr76_c_o 10000ms linear infinite alternate forwards}@keyframes euYUkiCJ0Rr76_c_o { 0% {opacity: 0} 14% {opacity: 1} 100% {opacity: 1}} #euYUkiCJ0Rr77 {animation: euYUkiCJ0Rr77_c_o 10000ms linear infinite alternate forwards}@keyframes euYUkiCJ0Rr77_c_o { 0% {opacity: 0} 14% {opacity: 1} 100% {opacity: 1}} #euYUkiCJ0Rr78 {animation: euYUkiCJ0Rr78_c_o 10000ms linear infinite alternate forwards}@keyframes euYUkiCJ0Rr78_c_o { 0% {opacity: 0} 12% {opacity: 1} 100% {opacity: 1}} #euYUkiCJ0Rr79 {animation: euYUkiCJ0Rr79_c_o 10000ms linear infinite alternate forwards}@keyframes euYUkiCJ0Rr79_c_o { 0% {opacity: 0} 10% {opacity: 1} 100% {opacity: 1}} #euYUkiCJ0Rr80 {animation: euYUkiCJ0Rr80_c_o 10000ms linear infinite alternate forwards}@keyframes euYUkiCJ0Rr80_c_o { 0% {opacity: 0} 10% {opacity: 1} 100% {opacity: 1}} #euYUkiCJ0Rr81 {animation: euYUkiCJ0Rr81_c_o 10000ms linear infinite alternate forwards}@keyframes euYUkiCJ0Rr81_c_o { 0% {opacity: 0} 10% {opacity: 1} 100% {opacity: 1}} #euYUkiCJ0Rr82 {animation: euYUkiCJ0Rr82_c_o 10000ms linear infinite alternate forwards}@keyframes euYUkiCJ0Rr82_c_o { 0% {opacity: 0} 8% {opacity: 1} 100% {opacity: 1}} #euYUkiCJ0Rr87 {animation: euYUkiCJ0Rr87_c_o 10000ms linear infinite alternate forwards}@keyframes euYUkiCJ0Rr87_c_o { 0% {opacity: 1} 54% {opacity: 0} 74% {opacity: 0} 100% {opacity: 0}}
]]></style>
<g transform="matrix(1.089948 0 0 1.008765-92.261358-365.197831)"><g transform="matrix(2.385992 0 0 2.385992 0.102499 358.157499)"><rect id="euYUkiCJ0Rr4" width="795.002934" height="570.100789" rx="0" ry="0" transform="translate(-40.645746-43.170843)" stroke-width="0" stroke-miterlimit="1"/><g id="euYUkiCJ0Rr5_tr" transform="translate(351.4856,241.521025) rotate(0)"><g id="euYUkiCJ0Rr5_ts" transform="scale(0.872479,0.86428)"><g id="euYUkiCJ0Rr5" transform="translate(-257.230705,-269.208351)"><g id="euYUkiCJ0Rr6"><rect width="696.13228" height="508.999947" rx="0" ry="0" transform="matrix(1.266951 0 0 1.111971-176.002176-16.618229)" fill="#cc0404" stroke-width="0" stroke-miterlimit="1"/><ellipse rx="217.073507" ry="208.652552" transform="matrix(1.1846 0 0 1.188562 253.752628 272.927991)" fill="#fff" stroke-width="0" stroke-miterlimit="1"/></g><rect width="45.6" height="120.551505" rx="0" ry="0" transform="matrix(.740059 0.672542-.672542 0.740059 249.598805 75.947455)" stroke-width="0" stroke-miterlimit="1"/><rect width="45.6" height="120.551505" rx="0" ry="0" transform="matrix(.740059 0.672542-.672542 0.740059 227.131685 279.540497)" stroke-width="0" stroke-miterlimit="1"/><rect width="45.6" height="120.551505" rx="0" ry="0" transform="matrix(.736492 0.676447-.676447 0.736492 316.460089 360.403395)" stroke-width="0" stroke-miterlimit="1"/><rect width="45.6" height="120.551505" rx="0" ry="0" transform="matrix(.740059 0.672542-.672542 0.740059 338.736557 156.878601)" stroke-width="0" stroke-miterlimit="1"/><rect width="45.6" height="120.551505" rx="0" ry="0" transform="matrix(.67233-.740251 0.740251 0.67233 137.869499 198.773294)" stroke-width="0" stroke-miterlimit="1"/><rect width="45.6" height="120.551505" rx="0" ry="0" transform="matrix(.67261-.739997 0.739997 0.67261 341.600466 221.2409)" stroke-width="0" stroke-miterlimit="1"/><rect width="45.6" height="120.551505" rx="0" ry="0" transform="matrix(.675609-.73726 0.73726 0.675609 57.332237 287.310079)" stroke-width="0" stroke-miterlimit="1"/><rect width="45.6" height="120.551505" rx="0" ry="0" transform="matrix(.675609-.73726 0.73726 0.675609 261.091047 309.887743)" stroke-width="0" stroke-miterlimit="1"/><path d="M0.170435,-0.097026l54.845587.016385-.12692,55.307255-54.852179-.00332.133512-55.32032Z" transform="matrix(.614985 0.559457-.551986 0.606773 257.574299 246.018256)" stroke-width="0" stroke-miterlimit="1"/></g></g></g><g id="euYUkiCJ0Rr18_to" style="offset-path:path('M342,291.114991C294.229093,532.433598,510.024624,858.088454,701.855582,992.639539');offset-rotate:0deg"><g id="euYUkiCJ0Rr18_ts" transform="rotate(0.226636) scale(1,1)"><g transform="translate(-342,-291.11499)"><path d="M-2.559787,4.244399L706.616962,0l-.739439,284.745109-707.243292.953359L-2.559787,4.244399Z" transform="matrix(.999992 0.003956-.004771 1.206128-7.205043 217.39815)" fill="#fff" stroke-width="0" stroke-miterlimit="1"/><g id="euYUkiCJ0Rr20_to" transform="translate(-368.298416,340.950987)"><rect width="684" height="27.691999" rx="0" ry="0" transform="translate(-342,-13.845993)" clip-rule="evenodd" fill="#030404" stroke-linejoin="round" stroke-miterlimit="1"/></g><g id="euYUkiCJ0Rr21_to" transform="translate(-366.776529,292.685131)"><rect width="684" height="27.691" rx="0" ry="0" transform="scale(1,1.16845) translate(-342,-13.845505)" clip-rule="evenodd" fill="#030404" stroke-linejoin="round" stroke-miterlimit="1"/></g><g id="euYUkiCJ0Rr22_to" transform="translate(-365.728364,234.003239)"><rect width="684" height="27.691999" rx="0" ry="0" transform="scale(1.000002,1.103692) translate(-342,-13.846)" clip-rule="evenodd" fill="#030404" stroke-linejoin="round" stroke-miterlimit="1"/></g></g></g></g><path id="euYUkiCJ0Rr23" d="M-0.303742,-3.31841h65.13013l100.657923.020936l54.285131.041872l38.977751.043188c0,0,43.362047-.126136,43.362047-.126136l62.124598.049849l45.91429-.014251l35.182631.065569l41.860567-.18899l43.303361-.171289l29.56791-.116958l26.841792-.106174l26.736941-.10576L643.838346,-4.046l22.752613-.089999l17.405225-.068848-.078387,34.295343h-16.636966-21.836017-30.438085-27.980351-24.199222l-31.588302.070866h-43.75l-41.625-.000015h-38.1875l-44.125-.000016h-60c0,0-45.9375-.000015-45.9375-.000015s-38.5,0-38.5,0l-53.875.000015-100.0625-.000015-65.375.000023-.105096-33.479749Z" transform="translate(0 194.190994)" clip-rule="evenodd" fill="#ffffff" stroke-linejoin="round" stroke-miterlimit="1"/><g id="euYUkiCJ0Rr24_to" style="offset-path:path('M342,97.267997L342,97.267997C326.431773,-132.547923,4.863511,-472.16845,-337.163787,-569.322528');offset-rotate:0deg"><g id="euYUkiCJ0Rr24_ts" transform="scale(1,1)"><g transform="translate(-342,-97.267996)"><rect width="727.867957" height="200.232219" rx="0" ry="0" transform="matrix(1.284927 0 0 0.997062-109.190126-5.837464)" fill="#fff" stroke-width="0" stroke-miterlimit="1"/><g id="euYUkiCJ0Rr26_to" transform="translate(-364.320403,180.240715)"><rect width="684" height="27.691999" rx="0" ry="0" transform="scale(1,1.080197) translate(-342,-13.846001)" clip-rule="evenodd" fill="#030404" stroke-linejoin="round" stroke-miterlimit="1"/></g><g id="euYUkiCJ0Rr27_to" transform="translate(-368.298416,119.412501)"><rect width="684" height="27.693001" rx="0" ry="0" transform="translate(-342,-13.8465)" clip-rule="evenodd" fill="#030404" stroke-linejoin="round" stroke-miterlimit="1"/></g><rect width="684" height="27.694" rx="0" ry="0" transform="translate(0 55.73)" clip-rule="evenodd" fill="#030404" stroke-linejoin="round" stroke-miterlimit="1"/><rect width="684" height="27.694" rx="0" ry="0" transform="translate(0 0.345)" clip-rule="evenodd" fill="#030404" stroke-linejoin="round" stroke-miterlimit="1"/><g id="euYUkiCJ0Rr30_to" transform="translate(136.800003,93.267997)"><g id="euYUkiCJ0Rr30" transform="translate(-136.800003,-97.267996)" opacity="0"><rect width="273.600006" height="193.845993" rx="0" ry="0" transform="translate(0 0.345)" clip-rule="evenodd" fill="#030404" stroke-linejoin="round" stroke-miterlimit="1"/><path id="euYUkiCJ0Rr32" d="" opacity="0" clip-rule="evenodd" fill="#030404" stroke-linejoin="round" stroke-miterlimit="1"/><path id="euYUkiCJ0Rr33" d="M159.6,26.656l-6.845,3.602l1.306-7.625-5.537-5.399l7.654-1.113L159.6,9.187l3.423,6.934l7.654,1.113-5.538,5.399l1.308,7.625-6.847-3.602Z" opacity="0" clip-rule="evenodd" fill="#fff" stroke-linejoin="round" stroke-miterlimit="1"/><path id="euYUkiCJ0Rr34" d="M114,26.656l-6.845,3.602l1.306-7.625-5.537-5.399l7.654-1.113L114,9.187l3.423,6.934l7.653,1.113-5.537,5.399l1.307,7.625L114,26.656Z" opacity="0" clip-rule="evenodd" fill="#fff" stroke-linejoin="round" stroke-miterlimit="1"/><path id="euYUkiCJ0Rr35" d="M68.4,26.656l-6.845,3.602l1.306-7.625-5.538-5.399l7.654-1.113L68.4,9.187l3.423,6.934l7.653,1.113-5.537,5.399l1.306,7.625L68.4,26.656Z" opacity="0" clip-rule="evenodd" fill="#fff" stroke-linejoin="round" stroke-miterlimit="1"/><path id="euYUkiCJ0Rr36" d="M22.8,26.656l-6.846,3.602l1.307-7.625-5.537-5.399l7.653-1.113L22.8,9.187l3.423,6.934l7.654,1.113-5.539,5.399l1.309,7.625L22.8,26.656Z" opacity="0" clip-rule="evenodd" fill="#fff" stroke-linejoin="round" stroke-miterlimit="1"/><path id="euYUkiCJ0Rr37" d="M205.199,26.656l-6.844,3.602l1.307-7.625-5.539-5.399l7.655-1.113l3.421-6.934l3.424,6.934l7.654,1.113-5.538,5.399l1.307,7.625-6.847-3.602Z" opacity="0" clip-rule="evenodd" fill="#fff" stroke-linejoin="round" stroke-miterlimit="1"/><path id="euYUkiCJ0Rr38" d="M250.8,26.656l6.844,3.602-1.306-7.625l5.538-5.399-7.654-1.113L250.8,9.187l-3.423,6.934-7.654,1.113l5.538,5.399-1.307,7.625l6.846-3.602Z" opacity="0" clip-rule="evenodd" fill="#fff" stroke-linejoin="round" stroke-miterlimit="1"/><path id="euYUkiCJ0Rr39" d="M22.8,181.761l6.846,3.6-1.308-7.622l5.539-5.402-7.654-1.113L22.8,164.29l-3.423,6.934-7.653,1.113l5.537,5.402-1.307,7.622l6.846-3.6Z" opacity="0" clip-rule="evenodd" fill="#fff" stroke-linejoin="round" stroke-miterlimit="1"/><path id="euYUkiCJ0Rr40" d="M68.399,181.761l6.846,3.6-1.306-7.622l5.537-5.402-7.654-1.113-3.423-6.934-3.422,6.934-7.654,1.113l5.538,5.402-1.307,7.622l6.845-3.6Z" opacity="0" clip-rule="evenodd" fill="#fff" stroke-linejoin="round" stroke-miterlimit="1"/><path id="euYUkiCJ0Rr41" d="M114,181.761l6.845,3.6-1.306-7.622l5.537-5.402-7.653-1.113L114,164.29l-3.422,6.934-7.654,1.113l5.537,5.402-1.307,7.622l6.846-3.6Z" opacity="0" clip-rule="evenodd" fill="#fff" stroke-linejoin="round" stroke-miterlimit="1"/><path id="euYUkiCJ0Rr42" d="M159.6,181.761l6.845,3.6-1.307-7.622l5.538-5.402-7.654-1.113-3.422-6.934-3.423,6.934-7.654,1.113l5.538,5.402-1.308,7.622l6.847-3.6Z" opacity="0" clip-rule="evenodd" fill="#fff" stroke-linejoin="round" stroke-miterlimit="1"/><path id="euYUkiCJ0Rr43" d="M205.199,181.761l6.845,3.6-1.305-7.622l5.537-5.402-7.653-1.113-3.424-6.934-3.422,6.934-7.654,1.113l5.538,5.402-1.309,7.622l6.847-3.6Z" opacity="0" clip-rule="evenodd" fill="#fff" stroke-linejoin="round" stroke-miterlimit="1"/><path id="euYUkiCJ0Rr44" d="M250.8,181.761l-6.845,3.6l1.306-7.622-5.538-5.402l7.654-1.113l3.423-6.934l3.422,6.934l7.654,1.113-5.538,5.402l1.308,7.622-6.846-3.6Z" opacity="0" clip-rule="evenodd" fill="#fff" stroke-linejoin="round" stroke-miterlimit="1"/><path id="euYUkiCJ0Rr45" d="M22.8,142.611l6.846,3.601-1.308-7.625l5.539-5.4-7.654-1.111L22.8,125.14l-3.423,6.936-7.653,1.111l5.537,5.4-1.307,7.625l6.846-3.601Z" opacity="0" clip-rule="evenodd" fill="#fff" stroke-linejoin="round" stroke-miterlimit="1"/><path id="euYUkiCJ0Rr46" d="M68.399,142.611l6.846,3.601-1.306-7.625l5.537-5.4-7.654-1.111-3.423-6.936-3.422,6.936-7.654,1.111l5.538,5.4-1.307,7.625l6.845-3.601Z" opacity="0" clip-rule="evenodd" fill="#fff" stroke-linejoin="round" stroke-miterlimit="1"/><path id="euYUkiCJ0Rr47" d="M114,142.611l6.845,3.601-1.306-7.625l5.537-5.4-7.653-1.111L114,125.14l-3.422,6.936-7.654,1.111l5.537,5.4-1.307,7.625L114,142.611Z" opacity="0" clip-rule="evenodd" fill="#fff" stroke-linejoin="round" stroke-miterlimit="1"/><path id="euYUkiCJ0Rr48" d="M159.6,142.611l6.845,3.601-1.307-7.625l5.538-5.4-7.654-1.111-3.422-6.936-3.423,6.936-7.654,1.111l5.538,5.4-1.308,7.625l6.847-3.601Z" opacity="0" clip-rule="evenodd" fill="#fff" stroke-linejoin="round" stroke-miterlimit="1"/><path id="euYUkiCJ0Rr49" d="M205.199,142.611l6.845,3.601-1.305-7.625l5.537-5.4-7.653-1.111-3.424-6.936-3.422,6.936-7.654,1.111l5.538,5.4-1.309,7.625l6.847-3.601Z" opacity="0" clip-rule="evenodd" fill="#fff" stroke-linejoin="round" stroke-miterlimit="1"/><path id="euYUkiCJ0Rr50" d="M250.8,142.611l-6.845,3.601l1.306-7.625-5.538-5.4l7.654-1.111l3.423-6.936l3.422,6.936l7.654,1.111-5.538,5.4l1.308,7.625-6.846-3.601Z" opacity="0" clip-rule="evenodd" fill="#fff" stroke-linejoin="round" stroke-miterlimit="1"/><path id="euYUkiCJ0Rr51" d="M22.8,64.31l6.846,3.602-1.308-7.625l5.539-5.399-7.654-1.113L22.8,46.842l-3.423,6.933-7.653,1.113l5.537,5.399-1.307,7.625L22.8,64.31Z" opacity="0" clip-rule="evenodd" fill="#fff" stroke-linejoin="round" stroke-miterlimit="1"/><path id="euYUkiCJ0Rr52" d="M68.399,64.31l6.846,3.602-1.306-7.625l5.537-5.399-7.654-1.113-3.423-6.933-3.422,6.933-7.654,1.113l5.538,5.399-1.307,7.625l6.845-3.602Z" opacity="0" clip-rule="evenodd" fill="#fff" stroke-linejoin="round" stroke-miterlimit="1"/><path id="euYUkiCJ0Rr53" d="M114,64.31l6.845,3.602-1.306-7.625l5.537-5.399-7.653-1.113L114,46.842l-3.422,6.933-7.654,1.113l5.537,5.399-1.307,7.625L114,64.31Z" opacity="0" clip-rule="evenodd" fill="#fff" stroke-linejoin="round" stroke-miterlimit="1"/><path id="euYUkiCJ0Rr54" d="M159.6,64.31l6.845,3.602-1.307-7.625l5.538-5.399-7.654-1.113-3.422-6.933-3.423,6.933-7.654,1.113l5.538,5.399-1.308,7.625L159.6,64.31Z" opacity="0" clip-rule="evenodd" fill="#fff" stroke-linejoin="round" stroke-miterlimit="1"/><path id="euYUkiCJ0Rr55" d="M205.199,64.31l6.845,3.602-1.305-7.625l5.537-5.399-7.653-1.113-3.424-6.933-3.422,6.933-7.654,1.113l5.538,5.399-1.309,7.625l6.847-3.602Z" opacity="0" clip-rule="evenodd" fill="#fff" stroke-linejoin="round" stroke-miterlimit="1"/><path id="euYUkiCJ0Rr56" d="M250.8,64.31l-6.845,3.602l1.306-7.625-5.538-5.399l7.654-1.113l3.423-6.933l3.422,6.933l7.654,1.113-5.538,5.399l1.308,7.625L250.8,64.31Z" opacity="0" clip-rule="evenodd" fill="#fff" stroke-linejoin="round" stroke-miterlimit="1"/><path id="euYUkiCJ0Rr57" d="M22.8,103.46l6.846,3.602-1.308-7.625l5.539-5.398-7.654-1.113L22.8,85.992l-3.423,6.934-7.653,1.113l5.537,5.398-1.307,7.625L22.8,103.46Z" opacity="0" clip-rule="evenodd" fill="#fff" stroke-linejoin="round" stroke-miterlimit="1"/><path id="euYUkiCJ0Rr58" d="M68.399,103.46l6.846,3.602-1.306-7.625l5.537-5.398-7.654-1.113-3.423-6.934-3.422,6.934-7.654,1.113l5.538,5.398-1.307,7.625l6.845-3.602Z" opacity="0" clip-rule="evenodd" fill="#fff" stroke-linejoin="round" stroke-miterlimit="1"/><path id="euYUkiCJ0Rr59" d="M114,103.46l6.845,3.602-1.306-7.625l5.537-5.398-7.653-1.113L114,85.992l-3.422,6.934-7.654,1.113l5.537,5.398-1.307,7.625L114,103.46Z" opacity="0" clip-rule="evenodd" fill="#fff" stroke-linejoin="round" stroke-miterlimit="1"/><path id="euYUkiCJ0Rr60" d="M159.6,103.46l6.845,3.602-1.307-7.625l5.538-5.398-7.654-1.113-3.422-6.934-3.423,6.934-7.654,1.113l5.538,5.398-1.308,7.625l6.847-3.602Z" opacity="0" clip-rule="evenodd" fill="#fff" stroke-linejoin="round" stroke-miterlimit="1"/><path id="euYUkiCJ0Rr61" d="M205.199,103.46l6.845,3.602-1.305-7.625l5.537-5.398-7.653-1.113-3.424-6.934-3.422,6.934-7.654,1.113l5.538,5.398-1.309,7.625l6.847-3.602Z" opacity="0" clip-rule="evenodd" fill="#fff" stroke-linejoin="round" stroke-miterlimit="1"/><path id="euYUkiCJ0Rr62" d="M250.8,103.46l-6.845,3.602l1.306-7.625-5.538-5.398l7.654-1.113l3.423-6.934l3.422,6.934l7.654,1.113-5.538,5.398l1.308,7.625-6.846-3.602Z" opacity="0" clip-rule="evenodd" fill="#fff" stroke-linejoin="round" stroke-miterlimit="1"/><path id="euYUkiCJ0Rr63" d="M45.6,162.185l6.845,3.601-1.306-7.625l5.538-5.398-7.655-1.113-3.422-6.934-3.422,6.934-7.655,1.113l5.539,5.398-1.309,7.625l6.847-3.601Z" opacity="0" clip-rule="evenodd" fill="#fff" stroke-linejoin="round" stroke-miterlimit="1"/><path id="euYUkiCJ0Rr64" d="M91.2,162.185l6.845,3.601-1.306-7.625l5.538-5.398-7.655-1.113-3.422-6.934-3.423,6.934-7.654,1.113l5.538,5.398-1.307,7.625l6.846-3.601Z" opacity="0" clip-rule="evenodd" fill="#fff" stroke-linejoin="round" stroke-miterlimit="1"/><path id="euYUkiCJ0Rr65" d="M136.8,162.185l6.845,3.601-1.306-7.625l5.538-5.398-7.654-1.113-3.423-6.934-3.423,6.934-7.653,1.113l5.537,5.398-1.308,7.625l6.847-3.601Z" opacity="0" clip-rule="evenodd" fill="#fff" stroke-linejoin="round" stroke-miterlimit="1"/><path id="euYUkiCJ0Rr66" d="M182.4,162.185l6.845,3.601-1.306-7.625l5.537-5.398-7.653-1.113-3.423-6.934-3.423,6.934-7.653,1.113l5.537,5.398-1.308,7.625l6.847-3.601Z" opacity="0" clip-rule="evenodd" fill="#fff" stroke-linejoin="round" stroke-miterlimit="1"/><path id="euYUkiCJ0Rr67" d="M227.999,162.185l6.846,3.601-1.306-7.625l5.537-5.398-7.654-1.113-3.423-6.934-3.423,6.934-7.653,1.113l5.537,5.398-1.306,7.625l6.845-3.601Z" opacity="0" clip-rule="evenodd" fill="#fff" stroke-linejoin="round" stroke-miterlimit="1"/><path id="euYUkiCJ0Rr68" d="M45.6,123.035l6.845,3.601-1.306-7.625l5.538-5.397-7.655-1.115-3.422-6.933-3.422,6.933-7.655,1.115l5.539,5.397-1.309,7.625l6.847-3.601Z" opacity="0" clip-rule="evenodd" fill="#fff" stroke-linejoin="round" stroke-miterlimit="1"/><path id="euYUkiCJ0Rr69" d="M91.2,123.035l6.845,3.601-1.306-7.625l5.538-5.397-7.655-1.115-3.422-6.933-3.423,6.933-7.654,1.115l5.538,5.397-1.307,7.625l6.846-3.601Z" opacity="0" clip-rule="evenodd" fill="#fff" stroke-linejoin="round" stroke-miterlimit="1"/><path id="euYUkiCJ0Rr70" d="M136.8,123.035l6.845,3.601-1.306-7.625l5.538-5.397-7.654-1.115-3.423-6.933-3.423,6.933-7.653,1.115l5.537,5.397-1.308,7.625l6.847-3.601Z" opacity="0" clip-rule="evenodd" fill="#fff" stroke-linejoin="round" stroke-miterlimit="1"/><path id="euYUkiCJ0Rr71" d="M182.4,123.035l6.845,3.601-1.306-7.625l5.537-5.397-7.653-1.115-3.423-6.933-3.423,6.933-7.653,1.115l5.537,5.397-1.308,7.625l6.847-3.601Z" opacity="0" clip-rule="evenodd" fill="#fff" stroke-linejoin="round" stroke-miterlimit="1"/><path id="euYUkiCJ0Rr72" d="M227.999,123.035l6.846,3.601-1.306-7.625l5.537-5.397-7.654-1.115-3.423-6.933-3.423,6.933-7.653,1.115l5.537,5.397-1.306,7.625l6.845-3.601Z" opacity="0" clip-rule="evenodd" fill="#fff" stroke-linejoin="round" stroke-miterlimit="1"/><path id="euYUkiCJ0Rr73" d="M45.6,83.886l6.845,3.6-1.306-7.622l5.538-5.401-7.655-1.114L45.6,66.416l-3.422,6.933-7.655,1.114l5.539,5.401-1.309,7.622l6.847-3.6Z" opacity="0" clip-rule="evenodd" fill="#fff" stroke-linejoin="round" stroke-miterlimit="1"/><path id="euYUkiCJ0Rr74" d="M91.2,83.886l6.845,3.6-1.306-7.622l5.538-5.401-7.655-1.114L91.2,66.416l-3.423,6.933-7.654,1.114l5.538,5.401-1.307,7.622l6.846-3.6Z" opacity="0" clip-rule="evenodd" fill="#fff" stroke-linejoin="round" stroke-miterlimit="1"/><path id="euYUkiCJ0Rr75" d="M136.8,83.886l6.845,3.6-1.306-7.622l5.538-5.401-7.654-1.114-3.423-6.933-3.423,6.933-7.653,1.114l5.537,5.401-1.308,7.622l6.847-3.6Z" opacity="0" clip-rule="evenodd" fill="#fff" stroke-linejoin="round" stroke-miterlimit="1"/><path id="euYUkiCJ0Rr76" d="M182.4,83.886l6.845,3.6-1.306-7.622l5.537-5.401-7.653-1.114-3.423-6.933-3.423,6.933-7.653,1.114l5.537,5.401-1.308,7.622l6.847-3.6Z" opacity="0" clip-rule="evenodd" fill="#fff" stroke-linejoin="round" stroke-miterlimit="1"/><path id="euYUkiCJ0Rr77" d="M227.999,83.886l6.846,3.6-1.306-7.622l5.537-5.401-7.654-1.114-3.423-6.933-3.423,6.933-7.653,1.114l5.537,5.401-1.306,7.622l6.845-3.6Z" opacity="0" clip-rule="evenodd" fill="#fff" stroke-linejoin="round" stroke-miterlimit="1"/><path id="euYUkiCJ0Rr78" d="M45.6,44.736l6.845,3.602-1.306-7.625l5.538-5.401-7.655-1.111L45.6,27.265l-3.422,6.936-7.655,1.111l5.539,5.401-1.309,7.625L45.6,44.736Z" opacity="0" clip-rule="evenodd" fill="#fff" stroke-linejoin="round" stroke-miterlimit="1"/><path id="euYUkiCJ0Rr79" d="M91.2,44.736l6.845,3.602-1.306-7.625l5.538-5.401-7.655-1.111L91.2,27.265l-3.423,6.936-7.654,1.111l5.538,5.401-1.307,7.625L91.2,44.736Z" opacity="0" clip-rule="evenodd" fill="#fff" stroke-linejoin="round" stroke-miterlimit="1"/><path id="euYUkiCJ0Rr80" d="M136.8,44.736l6.845,3.602-1.306-7.625l5.538-5.401-7.654-1.111-3.423-6.936-3.423,6.936-7.653,1.111l5.537,5.401-1.308,7.625l6.847-3.602Z" opacity="0" clip-rule="evenodd" fill="#fff" stroke-linejoin="round" stroke-miterlimit="1"/><path id="euYUkiCJ0Rr81" d="M182.4,44.736l6.845,3.602-1.306-7.625l5.537-5.401-7.653-1.111-3.423-6.936-3.423,6.936-7.653,1.111l5.537,5.401-1.308,7.625l6.847-3.602Z" opacity="0" clip-rule="evenodd" fill="#fff" stroke-linejoin="round" stroke-miterlimit="1"/><path id="euYUkiCJ0Rr82" d="M227.999,44.736l6.846,3.602-1.306-7.625l5.537-5.401-7.654-1.111-3.423-6.936-3.423,6.936-7.653,1.111l5.537,5.401-1.306,7.625l6.845-3.602Z" opacity="0" clip-rule="evenodd" fill="#fff" stroke-linejoin="round" stroke-miterlimit="1"/></g></g></g></g></g><text dx="0" dy="0" font-family="&quot;Oswald&quot;" font-size="28.95" font-weight="400" transform="matrix(2.897212 0 0 2.897212 92.066269 251.415638)" opacity="0" stroke-width="0" stroke-miterlimit="1"><tspan x="0" y="0" font-family="&quot;Oswald&quot;" font-size="28.95" font-weight="400" font-style="normal" transform="translate(63.876868 153.749801)" fill="#fff" stroke-width="0" stroke-miterlimit="1"><![CDATA[
Code for Racism
]]></tspan></text><rect id="euYUkiCJ0Rr87" width="812.446911" height="586.011349" rx="0" ry="0" transform="matrix(1 0 0 1.358137-49.715677-161.852165)" fill="#030304" stroke-width="0"/></g><rect width="2380.489586" height="278.892185" rx="0" ry="0" transform="matrix(1 0 0 1.732243-209.659049-226.633659)" stroke-width="0"/></g></svg>
