<?xml version="1.0" encoding="UTF-8" standalone="no"?>
<!DOCTYPE svg PUBLIC "-//W3C//DTD SVG 1.1//EN" "http://www.w3.org/Graphics/SVG/1.1/DTD/svg11.dtd">
<svg width="100%" height="100%" viewBox="0 0 281 158" version="1.1" xmlns="http://www.w3.org/2000/svg" xmlns:xlink="http://www.w3.org/1999/xlink" xml:space="preserve" xmlns:serif="http://www.serif.com/" style="fill-rule:evenodd;clip-rule:evenodd;stroke-miterlimit:10;">
    <g transform="matrix(1,0,0,1,-507.31,-152.334)">
        <g transform="matrix(65.1258,0,0,72.7896,728.555,243.024)">
            <path d="M0.04,-0L0.04,-0.72L0.386,-0.72L0.548,-0.304L0.541,-0.72L0.767,-0.72L0.767,-0L0.427,-0L0.262,-0.407L0.269,-0L0.04,-0Z" style="fill:rgb(230,230,230);fill-rule:nonzero;"/>
        </g>
        <g transform="matrix(65.1307,0,0,66.2085,572.179,292.212)">
            <path d="M0.135,-0.635L0.556,-0.635L0.54,-0.559L0.335,-0.559L0.296,-0.376L0.467,-0.376L0.451,-0.299L0.28,-0.299L0.216,-0L0,-0L0.135,-0.635Z" style="fill:rgb(250,2,183);fill-rule:nonzero;"/>
        </g>
        <g transform="matrix(65.1307,0,0,66.2085,604.158,292.212)">
            <path d="M0.135,-0.635L0.556,-0.635L0.54,-0.559L0.336,-0.559L0.294,-0.366L0.465,-0.366L0.449,-0.291L0.278,-0.291L0.232,-0.077L0.436,-0.077L0.421,-0L0,-0L0.135,-0.635Z" style="fill:rgb(250,2,183);fill-rule:nonzero;"/>
        </g>
        <g transform="matrix(65.1307,0,0,66.2085,636.919,292.212)">
            <path d="M0.609,-0.559L0.448,-0.559L0.329,-0L0.113,-0L0.232,-0.559L0.073,-0.559L0.091,-0.635L0.626,-0.635L0.609,-0.559Z" style="fill:rgb(250,2,183);fill-rule:nonzero;"/>
        </g>
        <g transform="matrix(65.1307,0,0,66.2085,673.067,292.212)">
            <path d="M0.216,-0L0,-0L0.135,-0.635L0.352,-0.635L0.216,-0Z" style="fill:rgb(250,2,183);fill-rule:nonzero;"/>
        </g>
        <g transform="matrix(65.1307,0,0,66.2085,694.299,292.212)">
            <path d="M0.394,-0.451C0.396,-0.461 0.397,-0.475 0.397,-0.492C0.397,-0.502 0.396,-0.512 0.395,-0.522C0.394,-0.531 0.391,-0.54 0.388,-0.548C0.385,-0.555 0.38,-0.561 0.373,-0.566C0.366,-0.57 0.358,-0.572 0.347,-0.572C0.335,-0.572 0.324,-0.569 0.314,-0.564C0.304,-0.559 0.295,-0.552 0.288,-0.544C0.28,-0.535 0.274,-0.526 0.27,-0.515C0.265,-0.503 0.263,-0.492 0.263,-0.48C0.263,-0.463 0.268,-0.449 0.277,-0.44C0.286,-0.431 0.297,-0.423 0.312,-0.417C0.327,-0.411 0.343,-0.406 0.362,-0.402C0.381,-0.398 0.4,-0.393 0.42,-0.388C0.437,-0.383 0.453,-0.377 0.47,-0.37C0.487,-0.363 0.501,-0.353 0.515,-0.341C0.528,-0.328 0.538,-0.312 0.546,-0.293C0.554,-0.273 0.558,-0.248 0.558,-0.219C0.558,-0.177 0.55,-0.142 0.533,-0.113C0.516,-0.084 0.493,-0.061 0.464,-0.043C0.435,-0.025 0.4,-0.012 0.36,-0.004C0.319,0.004 0.275,0.008 0.228,0.008C0.18,0.008 0.141,0.005 0.111,-0.002C0.08,-0.008 0.056,-0.015 0.039,-0.022C0.018,-0.031 0.003,-0.041 -0.007,-0.052L0.027,-0.189L0.203,-0.189C0.202,-0.183 0.202,-0.175 0.201,-0.165C0.2,-0.154 0.2,-0.146 0.2,-0.14C0.2,-0.132 0.201,-0.124 0.203,-0.115C0.205,-0.106 0.208,-0.098 0.213,-0.091C0.217,-0.084 0.223,-0.078 0.231,-0.073C0.239,-0.068 0.249,-0.066 0.261,-0.066C0.274,-0.066 0.286,-0.069 0.297,-0.075C0.307,-0.081 0.316,-0.089 0.323,-0.098C0.33,-0.107 0.335,-0.117 0.339,-0.128C0.342,-0.139 0.344,-0.149 0.344,-0.16C0.344,-0.175 0.341,-0.187 0.334,-0.197C0.327,-0.207 0.317,-0.216 0.305,-0.223C0.293,-0.23 0.279,-0.236 0.264,-0.241C0.248,-0.245 0.232,-0.251 0.215,-0.256C0.199,-0.261 0.182,-0.266 0.165,-0.273C0.147,-0.28 0.131,-0.289 0.116,-0.301C0.101,-0.313 0.089,-0.328 0.08,-0.347C0.07,-0.365 0.065,-0.388 0.065,-0.417C0.065,-0.46 0.076,-0.496 0.098,-0.525C0.119,-0.554 0.147,-0.577 0.18,-0.595C0.213,-0.613 0.249,-0.626 0.288,-0.634C0.327,-0.641 0.365,-0.645 0.4,-0.645C0.447,-0.645 0.487,-0.64 0.521,-0.629C0.554,-0.618 0.58,-0.605 0.597,-0.59L0.56,-0.451L0.394,-0.451Z" style="fill:rgb(250,2,183);fill-rule:nonzero;"/>
        </g>
        <g transform="matrix(65.1307,0,0,66.2085,732.531,292.212)">
            <path d="M0.555,-0L0.339,-0L0.399,-0.283L0.276,-0.283L0.216,-0L0,-0L0.135,-0.635L0.352,-0.635L0.293,-0.359L0.415,-0.359L0.474,-0.635L0.692,-0.635L0.555,-0Z" style="fill:rgb(250,2,183);fill-rule:nonzero;"/>
        </g>
    </g>
    <g transform="matrix(1,0,0,0.972388,-507.413,-147.066)">
        <clipPath id="_clip1">
            <path d="M595.625,156.221C591.863,156.221 588.815,158.12 588.815,160.462L588.815,187.001L583.896,187.001L583.896,176.096C583.896,174.178 580.845,172.621 577.084,172.621L532.247,172.621C528.484,172.621 525.436,174.178 525.436,176.096L525.436,243.551C525.436,245.472 528.484,247.027 532.247,247.027L542.844,247.027L542.94,247.089L720.536,247.089C721.124,247.175 721.738,247.227 722.376,247.227L767.214,247.227C770.977,247.227 774.026,245.608 774.026,243.609L774.026,173.41C774.026,171.412 770.977,169.792 767.214,169.792L722.376,169.792C718.614,169.792 715.568,171.412 715.568,173.41L715.568,189.607L710.647,189.607L710.647,166.497C710.647,164.335 707.6,162.585 703.838,162.585L658.998,162.585C655.24,162.585 652.19,164.335 652.19,166.497L652.19,179.103L647.269,179.103L647.269,160.462C647.269,158.12 644.223,156.221 640.461,156.221L595.625,156.221Z"/>
        </clipPath>
        <g clip-path="url(#_clip1)">
            <path d="M525.436,247.227L525.436,156.221L774.026,156.221L774.026,247.227L525.436,247.227Z" style="fill:url(#_Linear2);fill-rule:nonzero;"/>
        </g>
    </g>
    <g transform="matrix(0.678162,0,0,0.910818,0.929291,-0.609741)">
        <g transform="matrix(1.47457,0,0,1.09791,-749.436,-166.581)">
            <g transform="matrix(85.6808,0,0,95.7636,513.901,259.809)">
                <path d="M0.04,-0.239L0.04,-0.72L0.342,-0.72L0.342,-0.288L0.343,-0.273L0.344,-0.265L0.345,-0.248C0.345,-0.225 0.353,-0.208 0.369,-0.197C0.374,-0.194 0.379,-0.191 0.384,-0.189C0.389,-0.187 0.395,-0.186 0.4,-0.186C0.411,-0.186 0.421,-0.19 0.432,-0.197C0.448,-0.208 0.456,-0.225 0.456,-0.248L0.458,-0.267L0.458,-0.273L0.459,-0.288L0.459,-0.72L0.761,-0.72L0.761,-0.239C0.761,-0.156 0.737,-0.094 0.69,-0.053C0.639,-0.008 0.556,0.014 0.443,0.014L0.358,0.014C0.245,0.014 0.163,-0.008 0.111,-0.053C0.064,-0.094 0.04,-0.156 0.04,-0.239Z" style="fill:rgb(170,166,163);fill-rule:nonzero;"/>
            </g>
        </g>
        <g transform="matrix(1.47457,0,0,1.09791,-749.436,-166.581)">
            <path d="M523.412,254.82C527.867,259.104 534.921,261.245 544.575,261.245L551.858,261.245C561.568,261.245 568.622,259.104 573.021,254.82C577.076,250.858 579.104,244.911 579.104,236.984L579.104,190.859L553.143,190.859L553.143,236.145C553.143,238.32 552.439,239.951 551.03,241.038C550.092,241.741 549.153,242.092 548.215,242.092C547.745,242.092 547.275,241.997 546.807,241.805C546.338,241.613 545.897,241.358 545.488,241.038C544.08,239.951 543.376,238.32 543.376,236.145L543.376,190.859L517.328,190.859L517.328,236.984C517.328,244.976 519.355,250.921 523.412,254.82Z" style="fill:none;fill-rule:nonzero;stroke:rgb(45,45,45);stroke-width:2px;"/>
        </g>
        <g transform="matrix(1.47457,0,0,1.09791,-749.436,-166.581)">
            <clipPath id="_clip3">
                <path d="M595.625,156.221C591.863,156.221 588.815,158.12 588.815,160.462L588.815,187.001L583.896,187.001L583.896,176.096C583.896,174.178 580.845,172.621 577.084,172.621L532.247,172.621C528.484,172.621 525.436,174.178 525.436,176.096L525.436,243.551C525.436,245.472 528.484,247.027 532.247,247.027L542.844,247.027L542.94,247.089L720.536,247.089C721.124,247.175 721.738,247.227 722.376,247.227L767.214,247.227C770.977,247.227 774.026,245.608 774.026,243.609L774.026,173.41C774.026,171.412 770.977,169.792 767.214,169.792L722.376,169.792C718.614,169.792 715.568,171.412 715.568,173.41L715.568,189.607L710.647,189.607L710.647,166.497C710.647,164.335 707.6,162.585 703.838,162.585L658.998,162.585C655.24,162.585 652.19,164.335 652.19,166.497L652.19,179.103L647.269,179.103L647.269,160.462C647.269,158.12 644.223,156.221 640.461,156.221L595.625,156.221Z"/>
            </clipPath>
            <g clip-path="url(#_clip3)">
                <path d="M525.436,247.227L525.436,156.221L774.026,156.221L774.026,247.227L525.436,247.227Z" style="fill:url(#_Linear4);fill-rule:nonzero;"/>
            </g>
        </g>
        <g transform="matrix(1.47457,0,0,1.09791,-749.436,-166.581)">
            <g transform="matrix(85.6808,0,0,95.7636,513.901,260.213)">
                <path d="M0.04,-0.239L0.04,-0.72L0.342,-0.72L0.342,-0.288L0.343,-0.273L0.344,-0.265L0.345,-0.248C0.345,-0.225 0.353,-0.208 0.369,-0.197C0.374,-0.194 0.379,-0.191 0.384,-0.189C0.389,-0.187 0.395,-0.186 0.4,-0.186C0.411,-0.186 0.421,-0.19 0.432,-0.197C0.448,-0.208 0.456,-0.225 0.456,-0.248L0.458,-0.267L0.458,-0.273L0.459,-0.288L0.459,-0.72L0.761,-0.72L0.761,-0.239C0.761,-0.156 0.737,-0.094 0.69,-0.053C0.639,-0.008 0.556,0.014 0.443,0.014L0.358,0.014C0.245,0.014 0.163,-0.008 0.111,-0.053C0.064,-0.094 0.04,-0.156 0.04,-0.239Z" style="fill:rgb(230,230,230);fill-rule:nonzero;"/>
            </g>
        </g>
        <g transform="matrix(1.47457,0,0,1.09791,-749.436,-166.581)">
            <path d="M523.412,255.224C527.867,259.508 534.921,261.649 544.575,261.649L551.858,261.649C561.568,261.649 568.622,259.508 573.021,255.224C577.076,251.262 579.104,245.315 579.104,237.388L579.104,191.263L553.143,191.263L553.143,236.549C553.143,238.724 552.439,240.355 551.03,241.442C550.092,242.145 549.153,242.496 548.215,242.496C547.745,242.496 547.275,242.401 546.807,242.209C546.338,242.017 545.897,241.762 545.488,241.442C544.08,240.355 543.376,238.724 543.376,236.549L543.376,191.263L517.328,191.263L517.328,237.388C517.328,245.38 519.355,251.325 523.412,255.224Z" style="fill:none;fill-rule:nonzero;stroke:rgb(45,45,45);stroke-width:0.5px;"/>
        </g>
        <g transform="matrix(1.47457,0,0,1.09791,-749.436,-166.581)">
            <g transform="matrix(65.1258,0,0,72.7896,581.503,243.024)">
                <path d="M0.04,-0L0.04,-0.72L0.454,-0.72C0.551,-0.72 0.618,-0.705 0.655,-0.677C0.692,-0.648 0.71,-0.597 0.71,-0.524C0.71,-0.448 0.672,-0.397 0.596,-0.37L0.577,-0.364C0.582,-0.364 0.588,-0.363 0.595,-0.36C0.624,-0.352 0.646,-0.341 0.662,-0.326C0.677,-0.311 0.689,-0.289 0.696,-0.262L0.702,-0.238L0.707,-0.203L0.725,-0.052C0.726,-0.047 0.727,-0.042 0.729,-0.035C0.731,-0.028 0.734,-0.016 0.739,-0L0.445,-0L0.437,-0.03C0.428,-0.07 0.423,-0.103 0.42,-0.129L0.417,-0.167L0.415,-0.19C0.412,-0.216 0.406,-0.234 0.398,-0.243C0.389,-0.252 0.375,-0.256 0.354,-0.256L0.344,-0.256L0.328,-0.255L0.328,-0L0.04,-0ZM0.321,-0.429L0.369,-0.429C0.391,-0.429 0.408,-0.434 0.421,-0.445C0.434,-0.456 0.44,-0.469 0.44,-0.486C0.44,-0.526 0.424,-0.548 0.391,-0.552L0.379,-0.554L0.321,-0.554L0.321,-0.429Z" style="fill:rgb(230,230,230);fill-rule:nonzero;"/>
            </g>
            <g transform="matrix(65.1258,0,0,72.7896,630.087,243.024)">
                <path d="M0.04,-0L0.04,-0.72L0.444,-0.72L0.486,-0.719C0.556,-0.719 0.612,-0.703 0.654,-0.671C0.693,-0.641 0.715,-0.601 0.72,-0.551C0.72,-0.515 0.715,-0.485 0.704,-0.46C0.693,-0.435 0.674,-0.414 0.649,-0.397C0.632,-0.386 0.613,-0.378 0.593,-0.374L0.61,-0.371C0.639,-0.364 0.663,-0.351 0.682,-0.332C0.701,-0.313 0.714,-0.295 0.723,-0.276C0.732,-0.257 0.736,-0.235 0.736,-0.21L0.736,-0.184C0.735,-0.178 0.734,-0.174 0.734,-0.171C0.727,-0.118 0.702,-0.077 0.657,-0.048C0.609,-0.016 0.543,-0 0.458,-0L0.04,-0ZM0.328,-0.151L0.385,-0.151L0.392,-0.152L0.407,-0.153C0.438,-0.16 0.456,-0.18 0.46,-0.213C0.461,-0.217 0.461,-0.223 0.461,-0.23C0.461,-0.247 0.457,-0.26 0.45,-0.269C0.443,-0.278 0.435,-0.285 0.427,-0.29C0.418,-0.294 0.407,-0.296 0.393,-0.296L0.328,-0.296L0.328,-0.151ZM0.328,-0.44L0.384,-0.44L0.392,-0.441C0.431,-0.441 0.45,-0.461 0.45,-0.5C0.45,-0.546 0.429,-0.569 0.388,-0.569L0.328,-0.569L0.328,-0.44Z" style="fill:rgb(230,230,230);fill-rule:nonzero;"/>
            </g>
            <g transform="matrix(65.1258,0,0,72.7896,678.866,243.024)">
                <path d="M-0.014,-0L0.187,-0.72L0.576,-0.72L0.777,-0L0.495,-0L0.472,-0.111L0.291,-0.111L0.268,-0L-0.014,-0ZM0.45,-0.289L0.381,-0.535L0.32,-0.289L0.45,-0.289Z" style="fill:rgb(230,230,230);fill-rule:nonzero;"/>
            </g>
        </g>
        <g transform="matrix(1.47457,0,0,1.09791,-749.436,-166.581)">
            <path d="M602.864,243.024L602.864,224.39L604.557,224.39C605.902,224.39 606.846,224.717 607.39,225.373C607.932,226.027 608.312,227.301 608.53,229.194L608.66,230.868L608.855,233.634C609.028,235.526 609.398,237.929 609.963,240.84L610.484,243.024L629.631,243.024C629.326,241.859 629.11,241.022 628.979,240.513C628.849,240.003 628.761,239.579 628.718,239.239L627.547,228.248L627.221,225.7L626.83,223.953C626.352,221.964 625.603,220.423 624.584,219.331C623.562,218.239 622.119,217.402 620.253,216.82C619.818,216.627 619.427,216.528 619.08,216.528L620.318,216.092C625.267,214.151 627.742,210.414 627.742,204.882C627.742,199.594 626.537,195.893 624.128,193.782C621.718,191.671 617.365,190.615 611.07,190.615L584.108,190.615L584.108,243.024L602.864,243.024ZM602.408,211.797L602.408,202.698L606.967,202.698C609.093,202.994 610.158,204.622 610.158,207.581C610.158,208.814 609.745,209.825 608.921,210.614C608.095,211.404 606.967,211.797 605.534,211.797L602.408,211.797Z" style="fill:none;fill-rule:nonzero;stroke:rgb(45,45,45);stroke-width:0.5px;"/>
        </g>
        <g transform="matrix(1.47457,0,0,1.09791,-749.436,-166.581)">
            <path d="M632.692,243.024L659.913,243.024C665.427,243.024 669.747,241.859 672.874,239.53C675.782,237.395 677.454,234.411 677.889,230.577C677.889,230.384 677.931,230.067 678.019,229.631L678.019,227.738C678.019,225.943 677.736,224.354 677.172,222.97C676.608,221.587 675.717,220.217 674.502,218.858C673.286,217.5 671.723,216.554 669.813,216.019L668.705,215.801C670.008,215.509 671.223,214.95 672.353,214.122C674.002,212.905 675.186,211.384 675.903,209.559C676.618,207.734 676.977,205.508 676.977,202.879C676.672,199.23 675.239,196.31 672.678,194.12C669.944,191.783 666.296,190.615 661.738,190.615L632.692,190.615L632.692,243.024ZM651.447,232.033L651.447,221.478L655.681,221.478C656.592,221.478 657.319,221.639 657.863,221.958C658.405,222.279 658.914,222.783 659.393,223.472C659.87,224.161 660.11,225.12 660.11,226.35C660.11,226.891 660.087,227.309 660.044,227.604C659.783,230.065 658.633,231.542 656.592,232.033L651.447,232.033ZM651.447,210.997L651.447,201.607L655.355,201.607C658.046,201.607 659.393,203.295 659.393,206.668C659.393,209.554 658.133,210.997 655.615,210.997L651.447,210.997Z" style="fill:none;fill-rule:nonzero;stroke:rgb(45,45,45);stroke-width:0.5px;"/>
        </g>
        <g transform="matrix(1.47457,0,0,1.09791,-749.436,-166.581)">
            <path d="M696.319,243.024L697.816,234.944L709.604,234.944L711.102,243.024L729.467,243.024L716.378,190.615L691.044,190.615L677.953,243.024L696.319,243.024ZM699.705,221.988L703.677,204.082L708.172,221.988L699.705,221.988Z" style="fill:none;fill-rule:nonzero;stroke:rgb(45,45,45);stroke-width:0.5px;"/>
        </g>
    </g>
    <g transform="matrix(1,0,0,1,-507.31,-152.334)">
        <path d="M746.073,243.024L745.617,213.399L756.363,243.024L778.506,243.024L778.506,190.615L763.788,190.615L764.243,220.896L753.693,190.615L731.16,190.615L731.16,243.024L746.073,243.024Z" style="fill:none;fill-rule:nonzero;stroke:rgb(45,45,45);stroke-width:1px;"/>
    </g>
    <g transform="matrix(1,0,0,1,-507.31,-152.334)">
        <path d="M746.073,243.024L745.617,213.399L756.363,243.024L778.506,243.024L778.506,190.615L763.788,190.615L764.243,220.896L753.693,190.615L731.16,190.615L731.16,243.024L746.073,243.024Z" style="fill:rgb(230,230,230);fill-rule:nonzero;stroke:rgb(45,45,45);stroke-width:1px;"/>
    </g>
    <defs>
        <linearGradient id="_Linear2" x1="0" y1="0" x2="1" y2="0" gradientUnits="userSpaceOnUse" gradientTransform="matrix(-4e-06,-91.0059,91.0059,-4e-06,649.731,247.227)"><stop offset="0" style="stop-color:rgb(35,31,32);stop-opacity:1"/><stop offset="1" style="stop-color:rgb(77,77,77);stop-opacity:1"/></linearGradient>
        <linearGradient id="_Linear4" x1="0" y1="0" x2="1" y2="0" gradientUnits="userSpaceOnUse" gradientTransform="matrix(-4e-06,-91.0059,91.0059,-4e-06,649.731,247.227)"><stop offset="0" style="stop-color:rgb(35,31,32);stop-opacity:1"/><stop offset="1" style="stop-color:rgb(77,77,77);stop-opacity:1"/></linearGradient>
    </defs>
</svg>
